<svg width="52" height="52" viewBox="0 0 52 52" fill="none" xmlns="http://www.w3.org/2000/svg">
<path d="M17.358 29.9927C16.1364 30.4686 14.8825 30.8572 13.6058 31.1556C9.65504 32.0991 6.70312 35.6406 6.70312 39.8656V50.6799H9.75V39.8656C9.75 35.6406 12.7019 32.0991 16.6527 31.1556C16.9066 31.0951 17.1655 31.0307 17.4172 30.9641C17.3842 30.6538 17.368 30.3418 17.3688 30.0297L17.358 29.9927Z" fill="#D4E1F4"/>
<path d="M38.5214 30.563C36.629 30.1113 34.6912 29.345 32.7547 28.2853L31.2812 27.4768V27.1172H30.0625V30.5002C29.5433 31.0586 28.9146 31.5039 28.2157 31.8085C27.5167 32.113 26.7624 32.2702 26 32.2702C25.2376 32.2702 24.4833 32.113 23.7843 31.8085C23.0854 31.5039 22.4567 31.0586 21.9375 30.5002V27.3203H20.7188V27.7176L18.8667 28.65C17.26 29.4534 15.4997 30.0792 13.4724 30.563C11.3953 31.0625 9.54198 32.2353 8.20127 33.8984C6.8432 35.5911 6.10013 37.6948 6.09375 39.8649V50.6289C6.09813 50.7987 6.166 50.9607 6.28397 51.0829C6.40193 51.2051 6.56142 51.2787 6.73095 51.2891H45.269C45.4386 51.2787 45.5981 51.2051 45.716 51.0829C45.834 50.9607 45.9019 50.7987 45.9062 50.6289V39.8649C45.8987 37.6944 45.1546 35.5908 43.7957 33.8984C42.4537 32.2352 40.5994 31.0625 38.5214 30.563ZM19.4117 29.7403L20.7188 29.0804V30.7311C20.7231 30.8812 20.7788 31.0253 20.8765 31.1394C21.5079 31.883 22.2933 32.4806 23.1783 32.8909C24.0634 33.3012 25.027 33.5143 26.0025 33.5156H26.0057C26.9811 33.5143 27.9446 33.3011 28.8295 32.8907C29.7144 32.4804 30.4996 31.8827 31.1308 31.1391C31.2264 31.0243 31.2795 30.8801 31.2812 30.7308V28.8662L32.1697 29.3543C32.7846 29.6909 33.3994 29.999 34.0141 30.2785C33.8811 34.5656 30.3384 38.0129 26.0008 38.0129C21.7024 38.0129 18.1774 34.6278 17.9848 30.3948C18.4679 30.1932 18.9438 29.9748 19.4117 29.7401V29.7403ZM44.6875 50.0703H39.2031V45.0466C39.2031 44.885 39.1389 44.73 39.0246 44.6157C38.9104 44.5015 38.7554 44.4373 38.5938 44.4373C38.4321 44.4373 38.2771 44.5015 38.1629 44.6157C38.0486 44.73 37.9844 44.885 37.9844 45.0466V50.0703H20.5984L20.6027 49.4914C20.6044 49.3277 20.5412 49.1699 20.4271 49.0525C20.3129 48.9351 20.157 48.8676 19.9933 48.8647C19.8305 48.869 19.6759 48.9365 19.5621 49.053C19.4483 49.1694 19.3844 49.3257 19.3839 49.4885L19.3795 50.0703H14.0156V45.0466C14.0156 44.885 13.9514 44.73 13.8371 44.6157C13.7229 44.5015 13.5679 44.4373 13.4062 44.4373C13.2446 44.4373 13.0896 44.5015 12.9754 44.6157C12.8611 44.73 12.7969 44.885 12.7969 45.0466V50.0703H7.3125V39.8649C7.31252 37.9845 7.94825 36.1594 9.11646 34.686C10.2847 33.2125 11.9167 32.1773 13.7475 31.7484C14.7781 31.5058 15.7948 31.2074 16.7932 30.8547C16.9413 32.4486 17.5016 33.9766 18.419 35.2885C19.3364 36.6003 20.5793 37.6509 22.0257 38.337C21.2134 39.0866 20.5634 39.9947 20.1157 41.0052C19.6679 42.0158 19.432 43.1074 19.4225 44.2126L19.4143 45.3937C19.4137 45.4741 19.4289 45.5538 19.4593 45.6283C19.4896 45.7028 19.5344 45.7706 19.5911 45.8276C19.6477 45.8847 19.7151 45.9301 19.7894 45.961C19.8636 45.9919 19.9432 46.0078 20.0237 46.0078C20.1845 46.0078 20.3388 45.9443 20.4529 45.831C20.5671 45.7177 20.6318 45.5639 20.633 45.4031L20.6423 44.2222C20.6517 43.1804 20.8975 42.1543 21.3612 41.2213C21.8249 40.2883 22.4944 39.4728 23.3192 38.8362C24.1885 39.099 25.0918 39.2323 26 39.2317C30.8378 39.2317 34.8185 35.5075 35.2059 30.7858C36.1977 31.1779 37.2158 31.4996 38.2528 31.7484C40.0836 32.1774 41.7155 33.2126 42.8837 34.686C44.0518 36.1595 44.6875 37.9846 44.6875 39.8649V50.0703Z" fill="#027CC1"/>
<path d="M10.2578 39.085C10.0962 39.085 9.9412 39.1492 9.82692 39.2634C9.71264 39.3777 9.64844 39.5327 9.64844 39.6943V40.4162C9.64844 40.5779 9.71264 40.7329 9.82692 40.8471C9.9412 40.9614 10.0962 41.0256 10.2578 41.0256C10.4194 41.0256 10.5744 40.9614 10.6887 40.8471C10.803 40.7329 10.8672 40.5779 10.8672 40.4162V39.6943C10.8672 39.5327 10.803 39.3777 10.6887 39.2634C10.5744 39.1492 10.4194 39.085 10.2578 39.085ZM10.2578 41.9861C10.0962 41.9861 9.9412 42.0503 9.82692 42.1646C9.71264 42.2789 9.64844 42.4339 9.64844 42.5955V48.0006C9.64844 48.1622 9.71264 48.3172 9.82692 48.4315C9.9412 48.5458 10.0962 48.61 10.2578 48.61C10.4194 48.61 10.5744 48.5458 10.6887 48.4315C10.803 48.3172 10.8672 48.1622 10.8672 48.0006V42.5955C10.8672 42.4339 10.803 42.2789 10.6887 42.1646C10.5744 42.0503 10.4194 41.9861 10.2578 41.9861Z" fill="#027CC1"/>
<path d="M30.4717 4.17121C30.3179 3.23162 29.8345 2.37752 29.1082 1.76204C28.3818 1.14655 27.4599 0.809936 26.5078 0.812534H25.4922C24.4834 0.80837 23.51 1.18443 22.7661 1.8658C22.0221 2.54716 21.5622 3.4838 21.4779 4.4891L20.7147 4.97203C19.5208 5.84375 18.5495 6.98485 17.8796 8.3026C17.2097 9.62035 16.8602 11.0776 16.8594 12.5558V13.7409C16.8604 14.5134 16.9969 15.2797 17.2626 16.0051C16.9252 16.3584 16.7399 16.8301 16.7465 17.3186C16.751 17.7741 16.9185 18.2129 17.2187 18.5555C17.5189 18.898 17.9319 19.1217 18.3828 19.186V21.089C18.3808 22.5252 18.7985 23.9308 19.5846 25.1328C19.6721 25.5291 19.7875 25.9188 19.9299 26.2989C20.0671 26.661 20.2229 27.0434 20.5328 27.3881C20.8384 27.729 21.2387 27.9713 21.6825 28.084C22.8017 28.3706 23.8568 28.6407 25.813 28.6407H25.8282C27.2596 28.6491 28.6861 28.4719 30.0719 28.1136C30.5447 27.993 30.9774 27.7502 31.3266 27.4096C31.6968 27.0475 31.9564 26.5876 32.0754 26.0836C32.1892 25.6065 32.2625 25.1207 32.2945 24.6313C32.8841 23.5436 33.193 22.326 33.1931 21.0888V21.0751L33.1618 19.6875C33.5506 19.5558 33.8811 19.2923 34.0962 18.9427C34.3499 19.0418 34.6051 19.1372 34.8617 19.2286C34.927 19.2517 34.9957 19.2635 35.0649 19.2635C35.1869 19.2635 35.3057 19.2243 35.4039 19.1518C35.4819 19.0948 35.5449 19.0198 35.5876 18.9331C35.6303 18.8464 35.6513 18.7507 35.6488 18.6541V12.5558C35.6498 10.8153 35.1659 9.10894 34.2515 7.628C33.337 6.14705 32.0282 4.95007 30.4717 4.17121ZM25.4922 2.03128H26.5078C27.0324 2.02758 27.5475 2.17146 27.9943 2.44652C28.441 2.72158 28.8014 3.11671 29.0343 3.58682C27.0146 2.94607 24.835 3.02753 22.8687 3.81726C23.0736 3.28884 23.4342 2.83511 23.9026 2.51618C24.3711 2.19725 24.9255 2.02815 25.4922 2.03128ZM18.0781 12.5558C18.0783 11.3958 18.3253 10.249 18.8027 9.19176C19.2801 8.13449 19.9769 7.19087 20.8469 6.42356C21.4513 7.88107 22.2215 9.26414 23.1422 10.5455C22.2584 10.8008 21.4197 11.1919 20.656 11.7048C20.0272 12.1246 19.4979 12.6769 19.1052 13.323C18.7125 13.9691 18.4659 14.6933 18.3828 15.4447C18.3756 15.4457 18.3646 15.4474 18.3574 15.4484C18.1732 14.8979 18.0789 14.3214 18.0781 13.7409V12.5558ZM18.9596 17.9766H18.6189C18.4467 17.9772 18.2809 17.911 18.1566 17.7918C18.0322 17.6727 17.9589 17.5099 17.9522 17.3377C17.9455 17.1656 18.0059 16.9976 18.1206 16.8691C18.2354 16.7407 18.3955 16.6617 18.5673 16.649L19.1556 18.0131C19.0927 17.9902 19.0265 17.9779 18.9596 17.9766ZM19.5966 21.2558C19.5951 21.2002 19.6016 21.1446 19.6016 21.089V18.98L20.1511 20.2954C19.8818 20.5587 19.69 20.891 19.5966 21.2558ZM30.8887 25.8043C30.8226 26.0842 30.6784 26.3395 30.4729 26.5407C30.2764 26.7312 30.0331 26.8666 29.7676 26.9333C28.4808 27.2658 27.1564 27.4301 25.8273 27.4219H25.8132C24.0102 27.4219 23.0703 27.182 21.9821 26.9033C21.7707 26.8497 21.5801 26.7344 21.4344 26.5721C21.2674 26.362 21.1407 26.1228 21.0607 25.8666C20.7426 25.0267 20.5942 24.2447 20.6199 23.5419C20.6517 22.6723 20.6916 21.9915 20.7295 21.6732C20.75 21.5126 20.8156 21.361 20.9187 21.2362C21.0219 21.1114 21.1583 21.0185 21.3122 20.9681C22.4705 20.5846 23.6729 20.3502 24.8904 20.2707C25.2068 20.2504 25.5114 20.2408 25.8045 20.2408C27.3118 20.2367 28.8077 20.5008 30.2225 21.0208C30.3486 21.0657 30.4626 21.1394 30.5554 21.236C30.6482 21.3325 30.7172 21.4493 30.7571 21.5772C30.9118 22.0843 31.0668 23.1789 31.0886 23.9196C31.1055 24.5539 31.0383 25.1877 30.8887 25.8043ZM30.2193 19.7309C28.4789 19.1519 26.6413 18.9221 24.8119 19.0547C23.5909 19.1349 22.3836 19.3588 21.215 19.7218L19.573 15.9051C19.5911 15.2722 19.7603 14.6527 20.0664 14.0984C20.3725 13.5441 20.8067 13.071 21.3328 12.7185C22.1246 12.1855 23.0098 11.8064 23.942 11.6013C26.0954 14.265 28.7986 16.4322 31.8668 17.955L30.2193 19.7309ZM31.9662 21.3748C31.952 21.3209 31.9377 21.2692 31.9233 21.2218C31.8156 20.8712 31.6166 20.5555 31.3469 20.3069L31.9413 19.6661L31.9735 21.0954C31.9738 21.189 31.9709 21.2822 31.9666 21.3751L31.9662 21.3748ZM34.4297 17.7764C29.3516 15.7592 26.1625 12.5883 24.4055 10.2265C23.3509 8.8272 22.4932 7.28996 21.8563 5.65767C23.1674 4.81213 24.695 4.36335 26.2551 4.36529C28.4248 4.36898 30.5043 5.2336 32.037 6.76927C33.5697 8.30495 34.4302 10.3861 34.4297 12.5558V17.7764Z" fill="#1EB7B7"/>
</svg>
