<svg width="50" height="48" viewBox="0 0 50 48" fill="none" xmlns="http://www.w3.org/2000/svg">
<path d="M13.4219 1.55469H10.375V4.60156H12V20.75H10.375V25.1172H12V43.6016H9.76562V46.4453H12.8125V43.6016H15.0469V25.1172H13.4219V20.75H15.0469V4.60156H13.4219V1.55469Z" fill="#D4E1F4"/>
<path d="M20.0234 17.0879V10.9941C20.0234 10.1995 19.7078 9.43746 19.1459 8.87558C18.584 8.31371 17.822 7.99805 17.0273 7.99805C16.2327 7.99805 15.4707 8.31371 14.9088 8.87558C14.3469 9.43746 14.0312 10.1995 14.0312 10.9941V17.0879C14.0303 17.1678 14.045 17.2471 14.0747 17.3213C14.1044 17.3955 14.1485 17.4631 14.2043 17.5203C14.2602 17.5775 14.3267 17.6231 14.4002 17.6545C14.4737 17.6859 14.5527 17.7025 14.6326 17.7034H19.4547C19.7915 17.7034 20.0234 17.4244 20.0234 17.0879ZM17.0442 9.19933C17.2812 9.19771 17.5161 9.24318 17.7353 9.33311C17.9546 9.42304 18.1537 9.55563 18.3213 9.72318C18.4889 9.89073 18.6215 10.0899 18.7115 10.3091C18.8014 10.5284 18.8469 10.7633 18.8453 11.0002H15.2419C15.2403 10.7632 15.2859 10.5282 15.3759 10.3089C15.4659 10.0896 15.5987 9.89036 15.7664 9.7228C15.9341 9.55524 16.1334 9.42268 16.3527 9.33281C16.5721 9.24295 16.8071 9.19757 17.0442 9.19933ZM15.25 16.4846V12.219H18.8047V16.4846H15.25ZM30.5453 17.7034H35.3677C35.4476 17.7025 35.5265 17.6858 35.6 17.6544C35.6734 17.623 35.74 17.5774 35.7958 17.5202C35.8516 17.463 35.8956 17.3954 35.9253 17.3213C35.955 17.2471 35.9697 17.1678 35.9688 17.0879V10.9941C35.9688 10.1995 35.6531 9.43746 35.0912 8.87558C34.5293 8.31371 33.7673 7.99805 32.9727 7.99805C32.178 7.99805 31.416 8.31371 30.8541 8.87558C30.2922 9.43746 29.9766 10.1995 29.9766 10.9941V17.0879C29.9766 17.4244 30.2085 17.7034 30.5453 17.7034ZM31.1953 16.4846V12.219H34.75V16.4846H31.1953ZM32.9566 9.19933C33.1936 9.19768 33.4285 9.24314 33.6478 9.33305C33.8671 9.42297 34.0663 9.55555 34.2339 9.72311C34.4014 9.89066 34.5341 10.0898 34.624 10.3091C34.714 10.5283 34.7595 10.7633 34.7579 11.0002H31.1547C31.1531 10.7632 31.1987 10.5282 31.2887 10.309C31.3787 10.0897 31.5114 9.8905 31.679 9.72295C31.8467 9.55539 32.0459 9.42282 32.2653 9.33293C32.4846 9.24304 32.7196 9.19763 32.9566 9.19933ZM22.5888 17.7034H27.4112C27.5762 17.7029 27.7346 17.6386 27.8531 17.5238C27.9717 17.409 28.0411 17.2528 28.0469 17.0879V10.9941C28.0469 10.1861 27.7259 9.41107 27.1545 8.83967C26.5831 8.26827 25.8081 7.94727 25 7.94727C24.1919 7.94727 23.4169 8.26827 22.8455 8.83967C22.2741 9.41107 21.9531 10.1861 21.9531 10.9941V17.0879C21.9589 17.2528 22.0283 17.409 22.1469 17.5238C22.2654 17.6386 22.4238 17.7029 22.5888 17.7034ZM23.1719 16.4846V12.219H26.8281V16.4846H23.1719ZM25 9.19933C25.237 9.19763 25.472 9.24304 25.6913 9.33293C25.9106 9.42282 26.1099 9.5554 26.2775 9.72296C26.4451 9.89052 26.5778 10.0897 26.6678 10.309C26.7578 10.5283 26.8033 10.7632 26.8017 11.0002H23.1983C23.1967 10.7632 23.2423 10.5283 23.3323 10.309C23.4223 10.0898 23.5549 9.89057 23.7225 9.72302C23.8902 9.55547 24.0894 9.42289 24.3087 9.33299C24.528 9.24309 24.763 9.19765 25 9.19933ZM27.7422 26.3362H26.1172V24.7112C26.1172 24.3747 25.9459 24.2034 25.6094 24.2034H23.7812C23.4448 24.2034 23.0703 24.3747 23.0703 24.7112V26.3362H21.6484C21.312 26.3362 20.9375 26.5075 20.9375 26.844V28.469C20.9375 28.8055 21.312 29.1799 21.6484 29.1799H23.0703V30.7034C23.0703 31.0398 23.4448 31.4143 23.7812 31.4143H25.6094C25.9459 31.4143 26.1172 31.0398 26.1172 30.7034V29.1799H27.7422C28.0787 29.1799 28.25 28.8055 28.25 28.469V26.844C28.25 26.5075 28.0787 26.3362 27.7422 26.3362ZM27.0312 27.9612H25.6094C25.2729 27.9612 24.8984 28.1325 24.8984 28.469V30.1955H24.2891V28.469C24.2891 28.1325 24.1177 27.9612 23.7812 27.9612H22.1562V27.5549H23.7812C24.1177 27.5549 24.2891 27.1805 24.2891 26.844V25.4221H24.8984V26.844C24.8984 27.1805 25.2729 27.5549 25.6094 27.5549H27.0312V27.9612ZM14.4375 29.6407C14.2759 29.6407 14.1209 29.7049 14.0066 29.8192C13.8923 29.9335 13.8281 30.0885 13.8281 30.2501V36.3096C13.8281 36.4712 13.8923 36.6262 14.0066 36.7405C14.1209 36.8548 14.2759 36.919 14.4375 36.919C14.5991 36.919 14.7541 36.8548 14.8684 36.7405C14.9827 36.6262 15.0469 36.4712 15.0469 36.3096V30.2501C15.0469 30.0885 14.9827 29.9335 14.8684 29.8192C14.7541 29.7049 14.5991 29.6407 14.4375 29.6407ZM14.4375 27.0155C14.2759 27.0155 14.1209 27.0797 14.0066 27.194C13.8923 27.3083 13.8281 27.4633 13.8281 27.6249V28.169C13.8281 28.3306 13.8923 28.4856 14.0066 28.5999C14.1209 28.7141 14.2759 28.7783 14.4375 28.7783C14.5991 28.7783 14.7541 28.7141 14.8684 28.5999C14.9827 28.4856 15.0469 28.3306 15.0469 28.169V27.6249C15.0469 27.4633 14.9827 27.3083 14.8684 27.194C14.7541 27.0797 14.5991 27.0155 14.4375 27.0155Z" fill="#027CC1"/>
<path d="M49.2734 21.1562H39.7266V22.375H48.6641V23.8984H39.625V25.1172H48.6641V45.8359H1.33594V25.1172H10.375V23.8984H1.33594V22.375H10.375V21.1562H0.726562C0.390086 21.1562 0.117188 21.3808 0.117188 21.7173V46.4627C0.117542 46.5418 0.133675 46.62 0.164642 46.6928C0.195609 46.7656 0.240787 46.8315 0.297533 46.8867C0.354279 46.9418 0.421452 46.9851 0.49512 47.0139C0.568788 47.0428 0.647471 47.0566 0.726562 47.0547H49.2734C49.3525 47.0566 49.4312 47.0428 49.5049 47.0139C49.5785 46.9851 49.6457 46.9418 49.7025 46.8867C49.7592 46.8315 49.8044 46.7656 49.8354 46.6928C49.8663 46.62 49.8825 46.5418 49.8828 46.4627V21.7173C49.8828 21.3808 49.6099 21.1562 49.2734 21.1562Z" fill="#1EB7B7"/>
<path d="M6.00781 27.25C6.00781 27.0884 5.94361 26.9334 5.82933 26.8191C5.71505 26.7048 5.56005 26.6406 5.39844 26.6406H2.65625C2.49463 26.6406 2.33964 26.7048 2.22536 26.8191C2.11108 26.9334 2.04688 27.0884 2.04688 27.25V30.0938C2.04688 30.2554 2.11108 30.4104 2.22536 30.5246C2.33964 30.6389 2.49463 30.7031 2.65625 30.7031H5.39844C5.56005 30.7031 5.71505 30.6389 5.82933 30.5246C5.94361 30.4104 6.00781 30.2554 6.00781 30.0938V27.25ZM4.78906 29.5859H3.26562V27.8594H4.78906V29.5859ZM6.00781 32.3281C6.00781 32.1665 5.94361 32.0115 5.82933 31.8972C5.71505 31.783 5.56005 31.7188 5.39844 31.7188H2.65625C2.49463 31.7188 2.33964 31.783 2.22536 31.8972C2.11108 32.0115 2.04688 32.1665 2.04688 32.3281V35.1719C2.04688 35.3335 2.11108 35.4885 2.22536 35.6028C2.33964 35.717 2.49463 35.7812 2.65625 35.7812H5.39844C5.56005 35.7812 5.71505 35.717 5.82933 35.6028C5.94361 35.4885 6.00781 35.3335 6.00781 35.1719V32.3281ZM4.78906 34.5625H3.26562V32.9375H4.78906V34.5625ZM6.00781 37.3047C6.00781 37.1431 5.94361 36.9881 5.82933 36.8738C5.71505 36.7595 5.56005 36.6953 5.39844 36.6953H2.65625C2.49463 36.6953 2.33964 36.7595 2.22536 36.8738C2.11108 36.9881 2.04688 37.1431 2.04688 37.3047V40.1484C2.04688 40.3101 2.11108 40.4651 2.22536 40.5793C2.33964 40.6936 2.49463 40.7578 2.65625 40.7578H5.39844C5.56005 40.7578 5.71505 40.6936 5.82933 40.5793C5.94361 40.4651 6.00781 40.3101 6.00781 40.1484V37.3047ZM4.78906 39.5391H3.26562V37.9141H4.78906V39.5391ZM10.8828 27.25C10.8828 27.0884 10.8186 26.9334 10.7043 26.8191C10.5901 26.7048 10.4351 26.6406 10.2734 26.6406H7.53125C7.36963 26.6406 7.21464 26.7048 7.10036 26.8191C6.98608 26.9334 6.92188 27.0884 6.92188 27.25V30.0938C6.92188 30.2554 6.98608 30.4104 7.10036 30.5246C7.21464 30.6389 7.36963 30.7031 7.53125 30.7031H10.2734C10.4351 30.7031 10.5901 30.6389 10.7043 30.5246C10.8186 30.4104 10.8828 30.2554 10.8828 30.0938V27.25ZM9.66406 29.5859H8.14062V27.8594H9.66406V29.5859ZM10.8828 32.3281C10.8828 32.1665 10.8186 32.0115 10.7043 31.8972C10.5901 31.783 10.4351 31.7188 10.2734 31.7188H7.53125C7.36963 31.7188 7.21464 31.783 7.10036 31.8972C6.98608 32.0115 6.92188 32.1665 6.92188 32.3281V35.1719C6.92188 35.3335 6.98608 35.4885 7.10036 35.6028C7.21464 35.717 7.36963 35.7812 7.53125 35.7812H10.2734C10.4351 35.7812 10.5901 35.717 10.7043 35.6028C10.8186 35.4885 10.8828 35.3335 10.8828 35.1719V32.3281ZM9.66406 34.5625H8.14062V32.9375H9.66406V34.5625ZM10.8828 37.3047C10.8828 37.1431 10.8186 36.9881 10.7043 36.8738C10.5901 36.7595 10.4351 36.6953 10.2734 36.6953H7.53125C7.36963 36.6953 7.21464 36.7595 7.10036 36.8738C6.98608 36.9881 6.92188 37.1431 6.92188 37.3047V40.1484C6.92188 40.3101 6.98608 40.4651 7.10036 40.5793C7.21464 40.6936 7.36963 40.7578 7.53125 40.7578H10.2734C10.4351 40.7578 10.5901 40.6936 10.7043 40.5793C10.8186 40.4651 10.8828 40.3101 10.8828 40.1484V37.3047ZM9.66406 39.5391H8.14062V37.9141H9.66406V39.5391ZM43.0781 27.25C43.0781 27.0884 43.0139 26.9334 42.8996 26.8191C42.7854 26.7048 42.6304 26.6406 42.4688 26.6406H39.7266C39.5649 26.6406 39.41 26.7048 39.2957 26.8191C39.1814 26.9334 39.1172 27.0884 39.1172 27.25V30.0938C39.1172 30.2554 39.1814 30.4104 39.2957 30.5246C39.41 30.6389 39.5649 30.7031 39.7266 30.7031H42.4688C42.6304 30.7031 42.7854 30.6389 42.8996 30.5246C43.0139 30.4104 43.0781 30.2554 43.0781 30.0938V27.25ZM41.8594 29.5859H40.3359V27.8594H41.8594V29.5859ZM43.0781 32.3281C43.0781 32.1665 43.0139 32.0115 42.8996 31.8972C42.7854 31.783 42.6304 31.7188 42.4688 31.7188H39.7266C39.5649 31.7188 39.41 31.783 39.2957 31.8972C39.1814 32.0115 39.1172 32.1665 39.1172 32.3281V35.1719C39.1172 35.3335 39.1814 35.4885 39.2957 35.6028C39.41 35.717 39.5649 35.7812 39.7266 35.7812H42.4688C42.6304 35.7812 42.7854 35.717 42.8996 35.6028C43.0139 35.4885 43.0781 35.3335 43.0781 35.1719V32.3281ZM41.8594 34.5625H40.3359V32.9375H41.8594V34.5625ZM43.0781 37.3047C43.0781 37.1431 43.0139 36.9881 42.8996 36.8738C42.7854 36.7595 42.6304 36.6953 42.4688 36.6953H39.7266C39.5649 36.6953 39.41 36.7595 39.2957 36.8738C39.1814 36.9881 39.1172 37.1431 39.1172 37.3047V40.1484C39.1172 40.3101 39.1814 40.4651 39.2957 40.5793C39.41 40.6936 39.5649 40.7578 39.7266 40.7578H42.4688C42.6304 40.7578 42.7854 40.6936 42.8996 40.5793C43.0139 40.4651 43.0781 40.3101 43.0781 40.1484V37.3047ZM41.8594 39.5391H40.3359V37.9141H41.8594V39.5391ZM47.9531 27.25C47.9531 27.0884 47.8889 26.9334 47.7746 26.8191C47.6604 26.7048 47.5054 26.6406 47.3438 26.6406H44.6016C44.4399 26.6406 44.285 26.7048 44.1707 26.8191C44.0564 26.9334 43.9922 27.0884 43.9922 27.25V30.0938C43.9922 30.2554 44.0564 30.4104 44.1707 30.5246C44.285 30.6389 44.4399 30.7031 44.6016 30.7031H47.3438C47.5054 30.7031 47.6604 30.6389 47.7746 30.5246C47.8889 30.4104 47.9531 30.2554 47.9531 30.0938V27.25ZM45.2109 27.8594H46.7344V29.5859H45.2109V27.8594ZM47.9531 32.3281C47.9531 32.1665 47.8889 32.0115 47.7746 31.8972C47.6604 31.783 47.5054 31.7188 47.3438 31.7188H44.6016C44.4399 31.7188 44.285 31.783 44.1707 31.8972C44.0564 32.0115 43.9922 32.1665 43.9922 32.3281V35.1719C43.9922 35.3335 44.0564 35.4885 44.1707 35.6028C44.285 35.717 44.4399 35.7812 44.6016 35.7812H47.3438C47.5054 35.7812 47.6604 35.717 47.7746 35.6028C47.8889 35.4885 47.9531 35.3335 47.9531 35.1719V32.3281ZM45.2109 32.9375H46.7344V34.5625H45.2109V32.9375ZM47.9531 37.3047C47.9531 37.1431 47.8889 36.9881 47.7746 36.8738C47.6604 36.7595 47.5054 36.6953 47.3438 36.6953H44.6016C44.4399 36.6953 44.285 36.7595 44.1707 36.8738C44.0564 36.9881 43.9922 37.1431 43.9922 37.3047V40.1484C43.9922 40.3101 44.0564 40.4651 44.1707 40.5793C44.285 40.6936 44.4399 40.7578 44.6016 40.7578H47.3438C47.5054 40.7578 47.6604 40.6936 47.7746 40.5793C47.8889 40.4651 47.9531 40.3101 47.9531 40.1484V37.3047ZM45.2109 37.9141H46.7344V39.5391H45.2109V37.9141Z" fill="#1EB7B7"/>
<path d="M40.232 42.9924H38.6094V25.7268H39.6214C39.7839 25.7263 39.9395 25.6615 40.0543 25.5467C40.1692 25.4319 40.2339 25.2762 40.2344 25.1138V20.7842C40.2339 20.6137 40.1659 20.4504 40.0454 20.3298C39.9248 20.2093 39.7615 20.1413 39.591 20.1408H38.6094V5.21113H39.6214C39.958 5.21113 40.2344 4.98769 40.2344 4.65071V1.53751C40.2336 1.45821 40.2171 1.37984 40.1858 1.30698C40.1545 1.23412 40.109 1.16823 40.0519 1.11313C39.9949 1.05803 39.9274 1.01483 39.8535 0.986057C39.7796 0.957279 39.7007 0.943494 39.6214 0.945505H10.3786C10.2993 0.943494 10.2204 0.957279 10.1465 0.986057C10.0726 1.01483 10.0051 1.05803 9.94809 1.11313C9.89104 1.16823 9.84553 1.23412 9.81421 1.30698C9.78288 1.37984 9.76637 1.45821 9.76562 1.53751V4.65071C9.76562 4.98769 10.042 5.21113 10.3786 5.21113H11.3906V20.1408H10.3786C10.2161 20.1413 10.0605 20.206 9.94568 20.3209C9.83084 20.4357 9.76611 20.5913 9.76562 20.7537V25.1164C9.76562 25.2782 9.82993 25.4335 9.9444 25.548C10.0589 25.6624 10.2141 25.7268 10.376 25.7268H11.3906V42.9924H9.76796C9.60269 43.0001 9.44678 43.0713 9.33279 43.1912C9.2188 43.3111 9.15555 43.4704 9.15625 43.6359V45.8361H10.375V44.2111H39.625V45.8361H40.8437V43.6359C40.8444 43.4704 40.7812 43.3111 40.6672 43.1912C40.5532 43.0713 40.3973 43.0001 40.232 42.9924ZM39.0156 24.508H30.3212C29.8655 23.6555 29.212 22.9247 28.4156 22.3769C27.6192 21.8291 26.703 21.4802 25.7439 21.3596H39.0156V24.508ZM29.8149 27.3518C29.8137 28.3038 29.5303 29.2341 29.0005 30.0251C28.4707 30.8161 27.7183 31.4323 26.8384 31.7958C25.9584 32.1593 24.9905 32.2537 24.0569 32.0673C23.1233 31.8808 22.266 31.4218 21.5932 30.7481C20.9205 30.0745 20.4625 29.2166 20.2772 28.2828C20.0919 27.3489 20.1876 26.3811 20.5522 25.5017C20.9168 24.6222 21.534 23.8706 22.3256 23.3418C23.1173 22.813 24.048 22.5308 25 22.5308C26.2773 22.533 27.5016 23.0419 28.4043 23.9457C29.3069 24.8495 29.8142 26.0744 29.8149 27.3518ZM10.9844 2.16425H39.0156V3.99238H10.9844V2.16425ZM10.9844 21.3596H14.0312C14.1929 21.3596 14.3479 21.2954 14.4621 21.1811C14.5764 21.0668 14.6406 20.9118 14.6406 20.7502C14.6406 20.5886 14.5764 20.4336 14.4621 20.3193C14.3479 20.205 14.1929 20.1408 14.0312 20.1408H12.6094V5.21113H37.3906V20.1408H18.0937C17.9321 20.1408 17.7771 20.205 17.6629 20.3193C17.5486 20.4336 17.4844 20.5886 17.4844 20.7502C17.4844 20.9118 17.5486 21.0668 17.6629 21.1811C17.7771 21.2954 17.9321 21.3596 18.0937 21.3596H24.2561C23.297 21.4802 22.3808 21.8291 21.5844 22.3769C20.788 22.9247 20.1345 23.6555 19.6788 24.508H10.9844V21.3596ZM12.6094 25.7268H19.19C18.9388 26.6235 18.8986 27.5662 19.0725 28.4811C19.2464 29.3959 19.6298 30.2581 20.1925 31.0001C20.7552 31.7421 21.482 32.3438 22.3161 32.7581C23.1501 33.1723 24.0687 33.3879 25 33.3879C25.9312 33.3879 26.8499 33.1723 27.6839 32.7581C28.5179 32.3438 29.2448 31.7421 29.8075 31.0001C30.3702 30.2581 30.7536 29.3959 30.9275 28.4811C31.1014 27.5662 31.0612 26.6235 30.81 25.7268H37.3906V42.9924H32.7187V34.7803C32.7187 34.6169 32.6545 34.4601 32.5401 34.3434C32.4256 34.2268 32.27 34.1596 32.1066 34.1564H17.8934C17.73 34.1596 17.5744 34.2268 17.4599 34.3434C17.3455 34.4601 17.2813 34.6169 17.2812 34.7803V42.9924H12.6094V25.7268ZM31.5 42.9924H18.5V35.3752H31.5V42.9924Z" fill="#027CC1"/>
</svg>
