<svg width="51" height="38" viewBox="0 0 51 38" fill="none" xmlns="http://www.w3.org/2000/svg">
<path d="M4.30766 10.5859C5.30459 5.32807 8.71354 1.78943 13.243 1.14735C12.7338 1.07734 12.2205 1.04181 11.7065 1.04102C6.43336 1.04102 2.36578 4.7582 1.26078 10.5859C-0.396719 19.2268 4.92719 30.68 20.4957 36.8591C20.6572 36.9168 20.8262 36.9507 20.9974 36.9596C21.1735 36.9508 21.3474 36.917 21.5139 36.8591C21.8504 36.7222 22.1854 36.5816 22.5188 36.4373C7.74209 30.1701 2.68672 19.0342 4.30766 10.5859Z" fill="#D4E1F4"/>
<path d="M30.2388 0.531597C27.3017 0.531597 24.1163 1.67925 21.003 3.85554C17.846 1.58297 14.7201 0.431152 11.7067 0.431152C6.15365 0.431152 1.81825 4.37249 0.661961 10.4708C-1.03901 19.3388 4.36462 31.1129 20.2709 37.4255C20.2811 37.4298 20.2922 37.4336 20.3029 37.4373C20.7496 37.6129 21.2462 37.6129 21.6928 37.4373C21.705 37.4332 21.7171 37.4287 21.729 37.4239C28.4214 34.7122 33.7864 30.8053 37.2439 26.1271L36.2637 25.4027C32.9426 29.896 27.7654 33.6598 21.2902 36.2867C21.1981 36.3287 21.098 36.3504 20.9967 36.3503C20.8955 36.3502 20.7954 36.3283 20.7034 36.2861C5.45764 30.2288 0.253172 19.0724 1.85908 10.6991C2.37705 7.97014 3.57721 5.68051 5.3315 4.07725C7.06954 2.48911 9.27405 1.6499 11.7067 1.6499C14.5661 1.6499 17.5695 2.80924 20.6334 5.09572C20.7376 5.17347 20.8639 5.21588 20.9939 5.21673C21.1239 5.21759 21.2507 5.17686 21.3559 5.10049C24.3746 2.90887 27.4462 1.75035 30.2388 1.75035C32.6653 1.75035 34.8728 2.58631 36.6227 4.16754C38.3797 5.75557 39.5954 8.01675 40.1368 10.7015C40.8955 14.6116 40.0928 18.9471 37.8766 22.9093L38.9403 23.5042C41.2965 19.2908 42.1467 14.6615 41.3323 10.4646C40.1154 4.43068 35.7608 0.531597 30.2388 0.531597Z" fill="#027CC1"/>
<path d="M6.22424 6.69533C6.32363 6.56789 6.36833 6.40617 6.34849 6.24577C6.32865 6.08537 6.24591 5.93942 6.11846 5.84003C5.99101 5.74063 5.8293 5.69594 5.6689 5.71577C5.5085 5.73561 5.36255 5.81835 5.26315 5.9458C4.18232 7.33172 3.44285 9.04346 3.06565 11.0334C2.45028 14.242 2.89543 17.6988 4.35315 21.03C4.41946 21.1757 4.54044 21.2894 4.68995 21.3467C4.83946 21.4039 5.00548 21.4 5.15214 21.3358C5.29879 21.2716 5.4143 21.1523 5.47369 21.0036C5.53308 20.855 5.53159 20.6889 5.46953 20.5414C4.11103 17.4369 3.69361 14.2285 4.26256 11.2617C4.60391 9.46352 5.26376 7.92688 6.22424 6.69533ZM8.19607 3.50089C7.80938 3.69794 7.43846 3.92453 7.08661 4.17862C7.02082 4.2251 6.96489 4.28416 6.92208 4.3524C6.87926 4.42063 6.85039 4.49667 6.83715 4.57613C6.82391 4.65559 6.82655 4.73688 6.84493 4.81531C6.86331 4.89375 6.89705 4.96775 6.94421 5.03306C6.99137 5.09837 7.05101 5.15367 7.11968 5.19578C7.18835 5.23789 7.26469 5.26597 7.34429 5.27839C7.42388 5.29081 7.50514 5.28733 7.58338 5.26814C7.66161 5.24896 7.73527 5.21445 7.80008 5.16661C8.10106 4.94929 8.41833 4.75547 8.74908 4.5869C8.89159 4.5127 8.99903 4.38523 9.04803 4.23222C9.09702 4.07921 9.08361 3.91304 9.0107 3.76987C8.9378 3.6267 8.81131 3.51812 8.65874 3.46774C8.50618 3.41737 8.3399 3.42928 8.19607 3.50089Z" fill="#027CC1"/>
<path d="M45.9589 22.1689C45.5217 22.1688 45.0942 22.2984 44.7306 22.5413C44.367 22.7841 44.0836 23.1293 43.9162 23.5333C43.7488 23.9372 43.705 24.3817 43.7902 24.8105C43.8755 25.2394 44.086 25.6333 44.3951 25.9425C44.7043 26.2518 45.0982 26.4623 45.527 26.5477C45.9559 26.633 46.4004 26.5892 46.8043 26.4219C47.2083 26.2546 47.5536 25.9712 47.7965 25.6077C48.0394 25.2441 48.169 24.8167 48.169 24.3795C48.1684 23.7934 47.9354 23.2316 47.521 22.8172C47.1067 22.4028 46.5449 22.1697 45.9589 22.1689ZM45.9589 25.3713C45.7627 25.3714 45.5709 25.3133 45.4077 25.2044C45.2446 25.0955 45.1174 24.9406 45.0422 24.7594C44.9671 24.5781 44.9473 24.3787 44.9856 24.1863C45.0238 23.9938 45.1182 23.817 45.2569 23.6783C45.3956 23.5395 45.5723 23.445 45.7647 23.4067C45.9571 23.3684 46.1566 23.388 46.3379 23.463C46.5191 23.5381 46.6741 23.6652 46.7831 23.8284C46.8921 23.9915 46.9503 24.1833 46.9503 24.3795C46.9501 24.6424 46.8457 24.8946 46.6598 25.0806C46.474 25.2667 46.2219 25.3713 45.9589 25.3717V25.3713Z" fill="#1EB7B7"/>
<path d="M45.9589 20.211C45.1776 20.2118 44.4122 20.4319 43.7499 20.8463C43.0876 21.2607 42.5549 21.8527 42.2125 22.555H37.7708L35.03 15.1706C34.8997 14.8075 34.6637 14.4917 34.3524 14.2638C34.041 14.036 33.6686 13.9065 33.2831 13.8921C32.9004 13.885 32.5246 13.9941 32.2052 14.205C31.8858 14.4159 31.6379 14.7187 31.4941 15.0734L28.5386 22.2828L25.3097 11.0465C25.198 10.6674 24.9709 10.3325 24.6599 10.0885C24.349 9.84457 23.9696 9.70371 23.5748 9.68559C23.18 9.66747 22.7893 9.77299 22.4573 9.98743C22.1253 10.2019 21.8684 10.5146 21.7226 10.8819L18.8343 18.0862H17.2812C17.1196 18.0862 16.9646 18.1504 16.8503 18.2647C16.7361 18.379 16.6719 18.534 16.6719 18.6956C16.6719 18.8572 16.7361 19.0122 16.8503 19.1265C16.9646 19.2408 17.1196 19.305 17.2812 19.305H19.2468C19.3677 19.3069 19.4864 19.2724 19.5873 19.2057C19.6883 19.1391 19.7667 19.0436 19.8125 18.9317L22.8538 11.3406C22.9059 11.2076 22.9979 11.0939 23.1171 11.0152C23.2363 10.9364 23.3769 10.8964 23.5197 10.9006C23.6602 10.9067 23.7953 10.9564 23.9062 11.0429C24.0171 11.1294 24.0982 11.2483 24.1383 11.3831L27.851 24.3059C27.8858 24.4276 27.9577 24.5355 28.0567 24.6144C28.1557 24.6934 28.2768 24.7395 28.4032 24.7465C28.5296 24.7535 28.6551 24.7209 28.7621 24.6533C28.8692 24.5857 28.9525 24.4864 29.0005 24.3693L32.6217 15.5391C32.6735 15.4125 32.7623 15.3045 32.8764 15.2292C32.9906 15.1539 33.1248 15.1148 33.2616 15.1171C33.5198 15.1212 33.783 15.3281 33.8874 15.6077L36.7752 23.3878C36.8191 23.5032 36.8975 23.6022 36.9998 23.6713C37.1021 23.7404 37.2232 23.7762 37.3466 23.7737H41.8357C41.7659 24.2463 41.7781 24.7273 41.8718 25.1956H36.4511C36.1879 25.1956 35.9199 24.9659 35.8142 24.6822L33.7648 19.152C33.7224 19.0364 33.6463 18.9362 33.5463 18.8644C33.4463 18.7925 33.327 18.7523 33.2039 18.749C33.0816 18.7464 32.9613 18.7807 32.8589 18.8476C32.7564 18.9145 32.6766 19.0108 32.6299 19.1239L28.8508 28.3237C28.7942 28.4521 28.6995 28.5599 28.5796 28.6326C28.4596 28.7053 28.3202 28.7395 28.1803 28.7304C28.0403 28.7213 27.9065 28.6694 27.797 28.5818C27.6874 28.4942 27.6075 28.375 27.5679 28.2405L23.8666 15.3526C23.8315 15.2305 23.7592 15.1223 23.6596 15.0433C23.5601 14.9644 23.4384 14.9185 23.3115 14.9121C23.1846 14.9057 23.0588 14.9391 22.9519 15.0077C22.8449 15.0763 22.7621 15.1766 22.7149 15.2946L20.7493 20.1899C20.6991 20.3168 20.6123 20.4259 20.5 20.5034C20.3877 20.581 20.2548 20.6234 20.1184 20.6253H12.7482C12.5731 20.6253 12.4052 20.5558 12.2814 20.432C12.1576 20.3081 12.088 20.1402 12.088 19.9651C12.088 19.7901 12.1576 19.6222 12.2814 19.4983C12.4052 19.3745 12.5731 19.305 12.7482 19.305H13.2187C13.3804 19.305 13.5354 19.2408 13.6496 19.1265C13.7639 19.0122 13.8281 18.8572 13.8281 18.6956C13.8281 18.534 13.7639 18.379 13.6496 18.2647C13.5354 18.1504 13.3804 18.0862 13.2187 18.0862H12.7482C12.2499 18.0862 11.772 18.2842 11.4196 18.6366C11.0672 18.9889 10.8693 19.4668 10.8693 19.9651C10.8693 20.4635 11.0672 20.9414 11.4196 21.2937C11.772 21.6461 12.2499 21.8441 12.7482 21.8441H20.1184C20.4982 21.8419 20.8687 21.7266 21.1827 21.5128C21.4966 21.2989 21.7396 20.9964 21.8806 20.6437L23.1866 17.387L26.3966 28.57C26.5056 28.9492 26.7299 29.2851 27.0383 29.5312C27.3467 29.7773 27.724 29.9214 28.118 29.9436C28.1528 29.9455 28.1875 29.9479 28.2222 29.9479C28.5975 29.9509 28.9652 29.8417 29.2781 29.6344C29.591 29.427 29.8348 29.131 29.9784 28.7841L33.1656 21.0257L34.6722 25.1071C34.9587 25.875 35.6737 26.4144 36.4515 26.4144H42.3232C42.6817 27.0548 43.203 27.5891 43.8343 27.9634C44.4656 28.3377 45.1845 28.5386 45.9184 28.5459C46.6523 28.5531 47.375 28.3665 48.0136 28.0047C48.6522 27.643 49.1839 27.1191 49.5551 26.4859C49.9262 25.8528 50.1235 25.1328 50.1271 24.3989C50.1307 23.665 49.9404 22.9432 49.5755 22.3064C49.2106 21.6697 48.684 21.1405 48.049 20.7726C47.414 20.4047 46.693 20.2109 45.9591 20.211H45.9589ZM45.9589 27.3306C45.3754 27.3308 44.8048 27.1581 44.3195 26.8341C43.8341 26.5101 43.4558 26.0494 43.2322 25.5104C43.0087 24.9713 42.9501 24.3781 43.0637 23.8057C43.1774 23.2333 43.4582 22.7075 43.8707 22.2947C44.2832 21.882 44.8089 21.6008 45.3812 21.4868C45.9535 21.3728 46.5468 21.4311 47.086 21.6543C47.6252 21.8776 48.0861 22.2556 48.4103 22.7408C48.7346 23.226 48.9077 23.7964 48.9078 24.38C48.907 25.162 48.5962 25.9117 48.0434 26.4648C47.4905 27.0179 46.7409 27.3291 45.9589 27.3303V27.3306Z" fill="#1EB7B7"/>
</svg>
