<svg width="52" height="52" viewBox="0 0 52 52" fill="none" xmlns="http://www.w3.org/2000/svg">
<path d="M14.9799 0.965044C14.5986 2.34377 13.5681 4.71163 10.8585 5.95857C10.6864 6.03785 10.6864 6.28237 10.8585 6.36164C13.5682 7.60858 14.5986 9.97644 14.9799 11.3552C15.0403 11.5735 15.3482 11.5735 15.4085 11.3552C15.7898 9.97644 16.8203 7.60858 19.5299 6.36164C19.702 6.28237 19.702 6.03785 19.5299 5.95857C16.8202 4.71163 15.7898 2.34377 15.4085 0.965044C15.3482 0.746678 15.0403 0.746678 14.9799 0.965044ZM36.9759 37.4314C36.5995 38.7639 35.6034 41.0031 33.035 42.197C32.8587 42.2789 32.8587 42.5284 33.035 42.6103C35.6035 43.8043 36.5995 46.0433 36.9759 47.3759C37.0381 47.5957 37.3521 47.5957 37.4142 47.3759C37.7906 46.0434 38.7867 43.8043 41.3551 42.6103C41.5314 42.5284 41.5314 42.2789 41.3551 42.197C38.7866 41.003 37.7906 38.7639 37.4142 37.4314C37.3521 37.2116 37.038 37.2116 36.9759 37.4314ZM27.2094 44.7287C26.9309 45.6118 26.268 46.9471 24.7195 47.7082C24.6847 47.725 24.6554 47.7512 24.6349 47.7839C24.6144 47.8165 24.6036 47.8543 24.6036 47.8928C24.6036 47.9314 24.6144 47.9692 24.6349 48.0018C24.6554 48.0345 24.6847 48.0607 24.7195 48.0775C26.2679 48.8386 26.9309 50.1739 27.2094 51.057C27.2689 51.2457 27.5388 51.2457 27.5983 51.057C27.8767 50.1739 28.5396 48.8386 30.0882 48.0775C30.1229 48.0607 30.1522 48.0345 30.1727 48.0018C30.1932 47.9692 30.2041 47.9314 30.2041 47.8928C30.2041 47.8543 30.1932 47.8165 30.1727 47.7839C30.1522 47.7512 30.1229 47.725 30.0882 47.7082C28.5397 46.9471 27.8767 45.6118 27.5983 44.7287C27.5388 44.54 27.2689 44.54 27.2094 44.7287Z" stroke="#04A2A2" stroke-width="1.4" stroke-miterlimit="10" stroke-linecap="round" stroke-linejoin="round"/>
<path d="M40.8585 5.53331L27.5813 7.47711C27.1825 7.53551 26.818 7.73547 26.5544 8.04045C26.2908 8.34543 26.1457 8.73507 26.1457 9.13817V28.1906C25.24 27.6984 24.1956 27.4289 23.0862 27.4559C19.9038 27.533 17.2844 30.0972 17.1441 33.2774C16.9905 36.7591 19.7569 39.6323 23.1996 39.6532C26.5993 39.6739 29.3373 36.8535 29.3373 33.4537V13.6159C29.3373 13.4172 29.4088 13.2251 29.5387 13.0747C29.6687 12.9244 29.8484 12.8258 30.045 12.797L47.1007 10.3001C47.6001 10.227 48.0481 10.6141 48.0481 11.119V24.1057C47.1425 23.6136 46.0983 23.3441 44.9891 23.3709C41.8068 23.4477 39.1872 26.0116 39.0465 29.1918C38.8925 32.6735 41.6588 35.5471 45.1018 35.5683C48.5016 35.5891 51.2397 32.7686 51.2397 29.3688V5.95595C51.2397 4.93194 50.3309 4.14658 49.3177 4.29489L44.3963 5.01538" stroke="#147BB5" stroke-width="1.4" stroke-miterlimit="10" stroke-linecap="round" stroke-linejoin="round"/>
<path d="M1.75768 40.1636C1.17436 41.0506 0.815886 42.0968 0.766415 43.2197C0.613031 46.7012 3.37951 49.5741 6.82217 49.595C10.2218 49.6156 12.9596 46.7952 12.9596 43.3955V23.6365C12.9596 23.4378 13.0311 23.2457 13.1611 23.0954C13.291 22.945 13.4707 22.8464 13.6673 22.8176L20.1991 21.8614C21.1299 21.7252 21.8199 20.9267 21.8199 19.9861V16.901C21.8199 16.3963 21.3719 16.009 20.8724 16.0821L11.2037 17.4977C10.8048 17.556 10.4403 17.756 10.1767 18.061C9.91314 18.366 9.76809 18.7556 9.76808 19.1587V38.1322C8.86228 37.64 7.81789 37.3706 6.70832 37.3975C5.91796 37.4165 5.13905 37.5908 4.41599 37.9105" stroke="#147BB5" stroke-width="1.4" stroke-miterlimit="10" stroke-linecap="round" stroke-linejoin="round"/>
</svg>
