<svg width="45" height="25" viewBox="0 0 45 25" fill="none" xmlns="http://www.w3.org/2000/svg">
<mask id="mask0_171_1715" style="mask-type:luminance" maskUnits="userSpaceOnUse" x="0" y="0" width="45" height="25">
<path d="M44.2647 0.663574H0.5V24.6636H44.2647V0.663574Z" fill="white"/>
</mask>
<g mask="url(#mask0_171_1715)">
<path d="M43.3273 12.2547C42.9492 11.8282 33.8562 1.79761 22.4671 1.79761C11.0779 1.79761 1.98492 11.8282 1.60681 12.2547C1.1851 12.7314 1.1851 13.452 1.60681 13.9287C1.98492 14.3553 11.0781 24.3858 22.4671 24.3858C33.856 24.3858 42.9491 14.3553 43.3273 13.9287C43.7488 13.452 43.7488 12.7314 43.3273 12.2547ZM22.4671 21.876C17.6782 21.876 13.7814 17.9349 13.7814 13.0917C13.7814 8.24855 17.6782 4.30741 22.4671 4.30741C27.2558 4.30741 31.1527 8.24855 31.1527 13.0917C31.1527 17.9349 27.2558 21.876 22.4671 21.876Z" fill="#444444"/>
<path d="M23.7085 10.5818C23.7085 9.31942 24.3281 8.20883 25.2709 7.52575C24.4249 7.08779 23.4815 6.81714 22.4677 6.81714C19.047 6.81714 16.2637 9.63206 16.2637 13.0917C16.2637 16.5513 19.047 19.3662 22.4677 19.3662C25.5304 19.3662 28.0652 17.1044 28.5659 14.1493C26.0674 14.9629 23.7085 13.0517 23.7085 10.5818Z" fill="#444444"/>
</g>
</svg>
