<svg width="36" height="36" viewBox="0 0 36 36" fill="none" xmlns="http://www.w3.org/2000/svg">
<circle cx="18" cy="18" r="18" transform="rotate(90 18 18)" fill="white"/>
<g clip-path="url(#clip0_200_554)">
<path d="M19.0833 24.0664L13.4667 18.4664C13.4 18.3998 13.3527 18.3275 13.3247 18.2498C13.2967 18.172 13.2829 18.0887 13.2833 17.9998C13.2833 17.9109 13.2973 17.8275 13.3253 17.7498C13.3533 17.672 13.4004 17.5998 13.4667 17.5331L19.0833 11.9164C19.2389 11.7609 19.4333 11.6831 19.6667 11.6831C19.9 11.6831 20.1 11.7664 20.2667 11.9331C20.4333 12.0998 20.5167 12.2942 20.5167 12.5164C20.5167 12.7387 20.4333 12.9331 20.2667 13.0998L15.3667 17.9998L20.2667 22.8998C20.4222 23.0553 20.5 23.2471 20.5 23.4751C20.5 23.7031 20.4167 23.9002 20.25 24.0664C20.0833 24.2331 19.8889 24.3164 19.6667 24.3164C19.4444 24.3164 19.25 24.2331 19.0833 24.0664Z" fill="#444444"/>
</g>
<defs>
<clipPath id="clip0_200_554">
<rect width="7.33333" height="16" fill="white" transform="translate(13 10)"/>
</clipPath>
</defs>
</svg>
