<svg width="30" height="29" viewBox="0 0 30 29" fill="none" xmlns="http://www.w3.org/2000/svg">
<g clip-path="url(#clip0_170_1645)">
<path fill-rule="evenodd" clip-rule="evenodd" d="M25.2985 27.7124H4.88247C2.84087 27.7124 1.17047 26.0996 1.17047 24.1284V4.41649C1.17047 2.44529 2.84087 0.8325 4.88247 0.8325H25.2985C27.3401 0.8325 29.0105 2.44529 29.0105 4.41649V24.1284C29.0105 26.0996 27.3401 27.7124 25.2985 27.7124ZM15.09 15.5269L16.7603 14.0037L22.6067 8.35896C22.4211 8.26936 22.2356 8.17976 21.9572 8.17976H8.22273C8.03713 8.17976 7.75873 8.26936 7.57313 8.35896L15.09 15.5269ZM23.4422 19.0212C23.4422 19.29 23.3494 19.4692 23.2566 19.6484L17.6886 14.2724L23.2566 8.89645C23.3494 9.07565 23.4422 9.34445 23.4422 9.52365V19.0212ZM6.85103 9.09495C6.78797 9.26128 6.73824 9.39246 6.73824 9.52365V18.9316C6.73824 19.1108 6.83104 19.3796 6.92384 19.5588L12.4918 14.1828L6.92384 8.89645C6.89898 8.96846 6.87411 9.03406 6.85103 9.09495ZM15.3688 16.4229L17.0392 14.8997L22.5144 20.2757C22.3288 20.3653 22.0504 20.4549 21.8648 20.4549H8.1304C7.852 20.4549 7.6664 20.3653 7.4808 20.2757L13.0488 14.8997L14.6264 16.4229C14.7192 16.5125 14.9048 16.6021 14.9976 16.6021C15.1832 16.6021 15.276 16.5125 15.3688 16.4229Z" fill="white"/>
</g>
<defs>
<clipPath id="clip0_170_1645">
<rect width="29" height="28" fill="white" transform="translate(0.840271 0.5)"/>
</clipPath>
</defs>
</svg>
