<svg width="8" height="13" viewBox="0 0 8 13" fill="none" xmlns="http://www.w3.org/2000/svg">
<path d="M1.25004 12.5667L6.8667 6.96668C6.93337 6.90002 6.9807 6.82779 7.0087 6.75002C7.0367 6.67224 7.05048 6.5889 7.05004 6.50002C7.05004 6.41113 7.03604 6.32779 7.00804 6.25002C6.98004 6.17224 6.93293 6.10002 6.8667 6.03335L1.25004 0.416682C1.09448 0.261127 0.900038 0.183349 0.666705 0.183349C0.433371 0.183349 0.233372 0.266682 0.0667047 0.433349C-0.0999618 0.600016 -0.183295 0.79446 -0.183295 1.01668C-0.183295 1.2389 -0.0999619 1.43335 0.0667046 1.60002L4.9667 6.50002L0.0667038 11.4C-0.0888515 11.5556 -0.16663 11.7473 -0.16663 11.9753C-0.16663 12.2033 -0.0832964 12.4005 0.0833701 12.5667C0.250037 12.7333 0.444481 12.8167 0.666704 12.8167C0.888926 12.8167 1.08337 12.7333 1.25004 12.5667Z" fill="#147BB5"/>
</svg>
