<svg width="29" height="29" viewBox="0 0 29 29" fill="none" xmlns="http://www.w3.org/2000/svg">
<g clip-path="url(#clip0_170_1641)">
<path d="M24.5736 27.806H4.86165C2.89045 27.806 1.27765 26.1932 1.27765 24.222V4.51001C1.27765 2.53881 2.89045 0.926016 4.86165 0.926016H24.5736C26.5448 0.926016 28.1576 2.53881 28.1576 4.51001V24.222C28.1576 26.1932 26.5448 27.806 24.5736 27.806Z" fill="white"/>
<path fill-rule="evenodd" clip-rule="evenodd" d="M14.718 13.022C15.5244 13.022 16.062 12.3948 16.062 11.5885C16.062 10.7821 15.4348 10.2445 14.718 10.2445C13.9116 10.2445 13.2844 10.8717 13.2844 11.6781C13.374 12.3948 13.9116 13.022 14.718 13.022Z" fill="#147BB5"/>
<path fill-rule="evenodd" clip-rule="evenodd" d="M14.718 6.30207C10.238 6.30207 6.65399 9.88607 6.65399 14.366C6.65399 18.846 10.238 22.43 14.718 22.43C19.198 22.43 22.782 18.846 22.782 14.366C22.782 9.88607 19.198 6.30207 14.718 6.30207ZM14.718 8.72127C16.3308 8.72127 17.5852 9.97567 17.5852 11.5885C17.5852 13.1116 16.3308 14.366 14.718 14.366C13.1948 14.366 11.8508 13.1116 11.9404 11.4989C11.8508 9.97567 13.1948 8.72127 14.718 8.72127ZM17.9436 15.5308C17.5852 15.8892 17.1372 16.158 16.6892 16.3372C16.2412 16.5164 15.7932 16.606 15.2556 16.606C15.3452 16.6956 15.3452 16.6956 15.4348 16.7852C16.062 17.4124 16.6892 18.0396 17.406 18.7564C17.5852 18.9356 17.6748 19.294 17.5852 19.4732C17.4956 19.742 17.1372 19.9212 16.8684 19.9212C16.6892 19.9212 16.51 19.8316 16.4204 19.6524C15.9724 19.2044 15.4348 18.6668 14.9868 18.2188C14.8076 18.0396 14.8076 18.1292 14.6284 18.2188C14.1804 18.7564 13.6428 19.2044 13.1052 19.742C12.8364 19.9212 12.5676 20.0108 12.3884 19.9212C12.1196 19.742 11.9404 19.4732 11.9404 19.2044C11.9404 19.0252 12.03 18.846 12.2092 18.7564C12.8364 18.1292 13.4636 17.502 14.0908 16.8748C14.0908 16.8748 14.1804 16.7852 14.27 16.6956C13.374 16.606 12.6572 16.4268 11.9404 15.8892C11.8508 15.7996 11.7612 15.7996 11.6716 15.71C11.4028 15.4412 11.3132 15.0828 11.582 14.814C11.7612 14.5452 12.1196 14.4556 12.478 14.6348C12.5676 14.6348 12.5676 14.7244 12.6572 14.7244C13.9116 15.6204 15.614 15.6204 16.8684 14.7244C16.958 14.6348 17.1372 14.5452 17.3164 14.5452C17.5852 14.4556 17.854 14.5452 18.0332 14.814C18.1228 14.9932 18.1228 15.3516 17.9436 15.5308Z" fill="#147BB5"/>
</g>
<defs>
<clipPath id="clip0_170_1641">
<rect width="28" height="28" fill="white" transform="translate(0.5 0.5)"/>
</clipPath>
</defs>
</svg>
