<svg width="36" height="36" viewBox="0 0 36 36" fill="none" xmlns="http://www.w3.org/2000/svg">
<circle cx="18" cy="18" r="18" transform="matrix(-4.37114e-08 1 1 4.37114e-08 0 0)" fill="white"/>
<g clip-path="url(#clip0_200_550)">
<path d="M16.9167 24.0664L22.5333 18.4664C22.6 18.3998 22.6473 18.3275 22.6753 18.2498C22.7033 18.172 22.7171 18.0887 22.7167 17.9998C22.7167 17.9109 22.7027 17.8275 22.6747 17.7498C22.6467 17.672 22.5996 17.5998 22.5333 17.5331L16.9167 11.9164C16.7611 11.7609 16.5667 11.6831 16.3333 11.6831C16.1 11.6831 15.9 11.7664 15.7333 11.9331C15.5667 12.0998 15.4833 12.2942 15.4833 12.5164C15.4833 12.7387 15.5667 12.9331 15.7333 13.0998L20.6333 17.9998L15.7333 22.8998C15.5778 23.0553 15.5 23.2471 15.5 23.4751C15.5 23.7031 15.5833 23.9002 15.75 24.0664C15.9167 24.2331 16.1111 24.3164 16.3333 24.3164C16.5556 24.3164 16.75 24.2331 16.9167 24.0664Z" fill="#444444"/>
</g>
<defs>
<clipPath id="clip0_200_550">
<rect width="7.33333" height="16" fill="white" transform="matrix(-1 -8.74228e-08 -8.74228e-08 1 23 10)"/>
</clipPath>
</defs>
</svg>
