<svg width="170" height="34" viewBox="0 0 170 34" fill="none" xmlns="http://www.w3.org/2000/svg">
<path d="M16.5245 1.46352C16.6741 1.00287 17.3259 1.00287 17.4755 1.46353L20.7045 11.4012C20.7714 11.6072 20.9634 11.7467 21.18 11.7467L31.6291 11.7467C32.1135 11.7467 32.3149 12.3665 31.923 12.6512L23.4695 18.7931C23.2943 18.9204 23.2209 19.1461 23.2879 19.3521L26.5168 29.2898C26.6665 29.7504 26.1393 30.1335 25.7474 29.8488L17.2939 23.7069C17.1186 23.5796 16.8814 23.5796 16.7061 23.7069L8.2526 29.8488C7.86074 30.1335 7.3335 29.7504 7.48318 29.2898L10.7121 19.3521C10.7791 19.1461 10.7057 18.9204 10.5305 18.7931L2.07699 12.6512C1.68513 12.3665 1.88652 11.7467 2.37088 11.7467L12.82 11.7467C13.0366 11.7467 13.2286 11.6072 13.2955 11.4012L16.5245 1.46352Z" fill="#04A2A2"/>
<path d="M50.5245 1.46352C50.6741 1.00287 51.3259 1.00287 51.4755 1.46353L54.7045 11.4012C54.7714 11.6072 54.9634 11.7467 55.18 11.7467L65.6291 11.7467C66.1135 11.7467 66.3149 12.3665 65.923 12.6512L57.4695 18.7931C57.2943 18.9204 57.2209 19.1461 57.2879 19.3521L60.5168 29.2898C60.6665 29.7504 60.1393 30.1335 59.7474 29.8488L51.2939 23.7069C51.1186 23.5796 50.8814 23.5796 50.7061 23.7069L42.2526 29.8488C41.8607 30.1335 41.3335 29.7504 41.4832 29.2898L44.7121 19.3521C44.7791 19.1461 44.7057 18.9204 44.5305 18.7931L36.077 12.6512C35.6851 12.3665 35.8865 11.7467 36.3709 11.7467L46.82 11.7467C47.0366 11.7467 47.2286 11.6072 47.2955 11.4012L50.5245 1.46352Z" fill="#04A2A2"/>
<path d="M84.5245 1.46352C84.6741 1.00287 85.3259 1.00287 85.4755 1.46353L88.7045 11.4012C88.7714 11.6072 88.9634 11.7467 89.18 11.7467L99.6291 11.7467C100.113 11.7467 100.315 12.3665 99.923 12.6512L91.4695 18.7931C91.2943 18.9204 91.2209 19.1461 91.2879 19.3521L94.5168 29.2898C94.6665 29.7504 94.1393 30.1335 93.7474 29.8488L85.2939 23.7069C85.1186 23.5796 84.8814 23.5796 84.7061 23.7069L76.2526 29.8488C75.8607 30.1335 75.3335 29.7504 75.4832 29.2898L78.7121 19.3521C78.7791 19.1461 78.7057 18.9204 78.5305 18.7931L70.077 12.6512C69.6851 12.3665 69.8865 11.7467 70.3709 11.7467L80.82 11.7467C81.0366 11.7467 81.2286 11.6072 81.2955 11.4012L84.5245 1.46352Z" fill="#04A2A2"/>
<path d="M118.524 1.46352C118.674 1.00287 119.326 1.00287 119.476 1.46353L122.704 11.4012C122.771 11.6072 122.963 11.7467 123.18 11.7467L133.629 11.7467C134.113 11.7467 134.315 12.3665 133.923 12.6512L125.47 18.7931C125.294 18.9204 125.221 19.1461 125.288 19.3521L128.517 29.2898C128.666 29.7504 128.139 30.1335 127.747 29.8488L119.294 23.7069C119.119 23.5796 118.881 23.5796 118.706 23.7069L110.253 29.8488C109.861 30.1335 109.334 29.7504 109.483 29.2898L112.712 19.3521C112.779 19.1461 112.706 18.9204 112.53 18.7931L104.077 12.6512C103.685 12.3665 103.887 11.7467 104.371 11.7467L114.82 11.7467C115.037 11.7467 115.229 11.6072 115.296 11.4012L118.524 1.46352Z" fill="#04A2A2"/>
<path d="M152.524 1.46352C152.674 1.00287 153.326 1.00287 153.476 1.46353L156.704 11.4012C156.771 11.6072 156.963 11.7467 157.18 11.7467L167.629 11.7467C168.113 11.7467 168.315 12.3665 167.923 12.6512L159.47 18.7931C159.294 18.9204 159.221 19.1461 159.288 19.3521L162.517 29.2898C162.666 29.7504 162.139 30.1335 161.747 29.8488L153.294 23.7069C153.119 23.5796 152.881 23.5796 152.706 23.7069L144.253 29.8488C143.861 30.1335 143.334 29.7504 143.483 29.2898L146.712 19.3521C146.779 19.1461 146.706 18.9204 146.53 18.7931L138.077 12.6512C137.685 12.3665 137.887 11.7467 138.371 11.7467L148.82 11.7467C149.037 11.7467 149.229 11.6072 149.296 11.4012L152.524 1.46352Z" fill="#04A2A2"/>
</svg>
