<svg width="35" height="35" viewBox="0 0 35 35" fill="none" xmlns="http://www.w3.org/2000/svg">
<path fill-rule="evenodd" clip-rule="evenodd" d="M30.0921 34.1323H5.45217C2.98817 34.1323 0.972168 32.1163 0.972168 29.6523V5.01222C0.972168 2.54822 2.98817 0.532227 5.45217 0.532227H30.0921C32.5561 0.532227 34.5721 2.54822 34.5721 5.01222V29.6523C34.5721 32.1163 32.5561 34.1323 30.0921 34.1323ZM17.7723 7.25293C12.1724 7.25293 7.69238 11.7329 7.69238 17.3329C7.69238 22.9329 12.1724 27.4129 17.7723 27.4129C23.3723 27.4129 27.8523 22.9329 27.8523 17.3329C27.8523 11.7329 23.3723 7.25293 17.7723 7.25293ZM17.7723 10.2769C19.7883 10.2769 21.3563 11.8449 21.3563 13.8609C21.3563 15.7649 19.7883 17.3329 17.7723 17.3329C15.8683 17.3329 14.1883 15.7649 14.3003 13.7489C14.1883 11.8449 15.8683 10.2769 17.7723 10.2769ZM21.8043 18.7889C21.3563 19.2369 20.7963 19.5729 20.2363 19.7969C19.6763 20.0209 19.1163 20.1329 18.4443 20.1329L18.6683 20.3569L21.1323 22.8209C21.3563 23.0449 21.4683 23.4929 21.3563 23.7169C21.2443 24.0529 20.7963 24.2769 20.4603 24.2769C20.2363 24.2769 20.0123 24.1649 19.9003 23.9409L18.1083 22.1489C17.9364 21.977 17.8964 22.003 17.7858 22.075C17.7524 22.0968 17.7124 22.1229 17.6603 22.1489C17.2906 22.5926 16.872 22.9874 16.4369 23.398L16.4369 23.398L16.4368 23.398C16.2129 23.6092 15.9846 23.8246 15.7563 24.0529C15.4203 24.2769 15.0843 24.3889 14.8603 24.2769C14.5243 24.0529 14.3003 23.7169 14.3003 23.3809C14.3003 23.1569 14.4123 22.9329 14.6363 22.8209L16.9883 20.4689L17.2123 20.2449C16.0923 20.1329 15.1963 19.9089 14.3003 19.2369C14.2443 19.1809 14.1884 19.1529 14.1324 19.1249C14.0764 19.0969 14.0204 19.0689 13.9644 19.0129C13.6284 18.6769 13.5164 18.2289 13.8524 17.8929C14.0763 17.5569 14.5243 17.4449 14.9723 17.6689C15.0283 17.6689 15.0563 17.6969 15.0843 17.7249C15.1123 17.7529 15.1403 17.7809 15.1963 17.7809C16.7643 18.9009 18.8923 18.9009 20.4603 17.7809C20.5723 17.6689 20.7963 17.5569 21.0203 17.5569C21.3563 17.4449 21.6923 17.5569 21.9163 17.8929C22.0283 18.1169 22.0283 18.5649 21.8043 18.7889ZM19.4523 13.8607C19.4523 14.8686 18.7803 15.6526 17.7723 15.6526C16.7643 15.6526 16.0923 14.8686 15.9803 13.9727C15.9803 12.9647 16.7643 12.1807 17.7723 12.1807C18.6683 12.1807 19.4523 12.8527 19.4523 13.8607Z" fill="white"/>
</svg>
