<svg width="36" height="35" viewBox="0 0 36 35" fill="none" xmlns="http://www.w3.org/2000/svg">
<path fill-rule="evenodd" clip-rule="evenodd" d="M5.3308 34.0668H30.8508C33.4028 34.0668 35.4908 32.0508 35.4908 29.5868V4.9468C35.4908 2.4828 33.4028 0.466797 30.8508 0.466797H5.3308C2.7788 0.466797 0.690796 2.4828 0.690796 4.9468V29.5868C0.690796 32.0508 2.7788 34.0668 5.3308 34.0668ZM19.1348 22.9794H17.8588C17.8588 22.9794 15.0748 23.0914 12.6388 20.7394C9.97076 18.0514 7.65076 12.7874 7.65076 12.7874C7.65076 12.7874 7.53476 12.4514 7.88276 12.0034C7.99876 11.7794 8.46276 11.7794 8.46276 11.7794H11.4788L11.9428 12.0034C12.0588 12.1154 12.1748 12.3394 12.1748 12.3394C12.1748 12.3394 12.6388 13.4594 13.3348 14.5794C14.4948 16.7074 15.0748 17.1554 15.5388 16.9314C16.2348 16.5954 16.0028 14.0194 16.0028 14.0194C16.0028 14.0194 16.0028 13.1234 15.6548 12.6754C15.4228 12.3394 14.9588 12.2274 14.7268 12.2274C14.6108 12.2274 14.8428 11.8914 15.1908 11.6674C15.6548 11.4434 16.5828 11.4434 17.7428 11.4434C18.6708 11.4434 18.9028 11.4434 19.2508 11.5554C20.0566 11.7283 20.0331 12.3016 19.9804 13.5844C19.9649 13.9634 19.9468 14.4044 19.9468 14.9154C19.9468 15.0596 19.9361 15.2192 19.925 15.3844C19.8846 15.989 19.8392 16.6675 20.2948 16.9314C20.5268 17.1554 21.1068 16.9314 22.4988 14.6914C23.1948 13.5714 23.6588 12.3394 23.6588 12.3394C23.6588 12.3394 23.7748 12.1154 23.8908 12.0034C24.0068 11.8914 24.2388 11.8914 24.2388 11.8914H27.3708C27.3708 11.8914 28.2988 11.7794 28.4148 12.2274C28.5308 12.6754 28.0668 13.6834 26.7908 15.3634C25.5862 16.9141 24.9993 17.4957 25.0524 18.0113C25.0914 18.3894 25.4746 18.732 26.2108 19.3954C27.9508 20.9634 28.2988 21.6354 28.2988 21.7474C28.9948 22.8674 27.4868 22.9794 27.4868 22.9794H24.7028C24.7028 22.9794 24.1228 23.0914 23.3108 22.5314C22.8946 22.2635 22.4969 21.8177 22.1176 21.3925C21.5454 20.7511 21.0151 20.1567 20.5268 20.2914C19.8308 20.6274 19.8308 22.1954 19.8308 22.1954C19.8308 22.1954 19.9468 22.5314 19.7148 22.7554C19.4828 22.9794 19.1348 22.9794 19.1348 22.9794Z" fill="white"/>
</svg>
