<svg width="36" height="35" viewBox="0 0 36 35" fill="none" xmlns="http://www.w3.org/2000/svg">
<path d="M15.5 14.0557V20.4446L21.3889 17.2779L15.5 14.0557Z" fill="white"/>
<path d="M26.4722 0H9C4.19444 0 0.25 3.94444 0.25 8.77778V26.25C0.25 31.0556 4.19444 35 9 35H26.4722C31.3056 35 35.25 31.0556 35.25 26.2222V8.77778C35.25 3.94444 31.3056 0 26.4722 0ZM28.5833 18.3611C28.5833 20.1944 28.4167 22.0556 28.4167 22.0556C28.4167 22.0556 28.2222 23.6111 27.5833 24.3056C26.75 25.2222 25.8333 25.2222 25.4167 25.2778C22.3611 25.5 17.7778 25.5278 17.7778 25.5278C17.7778 25.5278 12.0833 25.4444 10.3333 25.2778C9.86111 25.1944 8.75 25.2222 7.91667 24.3056C7.25 23.6111 7.08333 22.0556 7.08333 22.0556C7.08333 22.0556 6.91667 20.1944 6.91667 18.3611V16.6389C6.91667 14.8056 7.08333 12.9444 7.08333 12.9444C7.08333 12.9444 7.27778 11.3889 7.91667 10.6944C8.75 9.77778 9.66667 9.75 10.0833 9.69445C13.1667 9.47222 17.75 9.44444 17.75 9.44444C17.75 9.44444 22.3333 9.47222 25.3889 9.69445C25.8056 9.75 26.75 9.77778 27.5833 10.6667C28.25 11.3611 28.4167 12.9444 28.4167 12.9444C28.4167 12.9444 28.5833 14.8056 28.5833 16.6389V18.3611Z" fill="white"/>
</svg>
