<svg width="37" height="35" viewBox="0 0 37 35" fill="none" xmlns="http://www.w3.org/2000/svg">
<path fill-rule="evenodd" clip-rule="evenodd" d="M31.2053 34.0159H5.15727C2.55247 34.0159 0.421265 31.9999 0.421265 29.5359V4.89601C0.421265 2.43201 2.55247 0.416016 5.15727 0.416016H31.2053C33.8101 0.416016 35.9413 2.43201 35.9413 4.89601V29.5359C35.9413 31.9999 33.8101 34.0159 31.2053 34.0159ZM18.1807 18.784L20.3118 16.8801L27.771 9.82409C27.5342 9.71209 27.2975 9.60009 26.9423 9.60009H9.41897C9.18217 9.60009 8.82697 9.71209 8.59017 9.82409L18.1807 18.784ZM28.8369 23.1519C28.8369 23.4879 28.7185 23.7119 28.6001 23.9359L21.4961 17.2159L28.6001 10.496C28.7185 10.72 28.8369 11.056 28.8369 11.28V23.1519ZM7.66887 10.7441C7.58842 10.952 7.52497 11.116 7.52497 11.28V23.0399C7.52497 23.2639 7.64337 23.5999 7.76177 23.8239L14.8657 17.1039L7.76177 10.496C7.73005 10.586 7.69832 10.668 7.66887 10.7441ZM18.5364 19.9041L20.6676 18.0001L27.6532 24.7201C27.4164 24.8321 27.0612 24.9441 26.8244 24.9441H9.30118C8.94598 24.9441 8.70918 24.8321 8.47238 24.7201L15.5764 18.0001L17.5892 19.9041C17.7076 20.0161 17.9444 20.128 18.0628 20.128C18.2996 20.128 18.418 20.0161 18.5364 19.9041Z" fill="white"/>
</svg>
