<svg width="73" height="16" viewBox="0 0 73 16" fill="none" xmlns="http://www.w3.org/2000/svg">
<path d="M7.01189 1.58643C7.10257 1.30733 7.49743 1.30733 7.58811 1.58643L8.87094 5.53456C8.91149 5.65937 9.02781 5.74388 9.15905 5.74388H13.3104C13.6038 5.74388 13.7258 6.11941 13.4884 6.29191L10.1299 8.73198C10.0238 8.80913 9.97934 8.94586 10.0199 9.07068L11.3027 13.0188C11.3934 13.2979 11.074 13.53 10.8365 13.3575L7.47806 10.9174C7.37189 10.8403 7.22811 10.8403 7.12194 10.9174L3.76346 13.3575C3.52604 13.53 3.2066 13.2979 3.29728 13.0188L4.58011 9.07068C4.62066 8.94586 4.57623 8.80913 4.47006 8.73198L1.11158 6.29191C0.874161 6.11941 0.996178 5.74388 1.28964 5.74388H5.44095C5.57219 5.74388 5.68851 5.65937 5.72906 5.53456L7.01189 1.58643Z" fill="#04A2A2"/>
<path d="M21.6119 1.58643C21.7026 1.30733 22.0975 1.30733 22.1882 1.58643L23.471 5.53456C23.5115 5.65937 23.6278 5.74388 23.7591 5.74388H27.9104C28.2039 5.74388 28.3259 6.11941 28.0885 6.29191L24.73 8.73198C24.6238 8.80913 24.5794 8.94586 24.6199 9.07068L25.9028 13.0188C25.9934 13.2979 25.674 13.53 25.4366 13.3575L22.0781 10.9174C21.9719 10.8403 21.8281 10.8403 21.722 10.9174L18.3635 13.3575C18.1261 13.53 17.8066 13.2979 17.8973 13.0188L19.1801 9.07068C19.2207 8.94586 19.1763 8.80913 19.0701 8.73198L15.7116 6.29191C15.4742 6.11941 15.5962 5.74388 15.8897 5.74388H20.041C20.1722 5.74388 20.2885 5.65937 20.3291 5.53456L21.6119 1.58643Z" fill="#04A2A2"/>
<path d="M36.2119 1.58643C36.3026 1.30733 36.6974 1.30733 36.7881 1.58643L38.071 5.53456C38.1115 5.65937 38.2278 5.74388 38.3591 5.74388H42.5104C42.8038 5.74388 42.9259 6.11941 42.6884 6.29191L39.33 8.73198C39.2238 8.80913 39.1794 8.94586 39.2199 9.07068L40.5027 13.0188C40.5934 13.2979 40.274 13.53 40.0366 13.3575L36.6781 10.9174C36.5719 10.8403 36.4281 10.8403 36.3219 10.9174L32.9635 13.3575C32.7261 13.53 32.4066 13.2979 32.4973 13.0188L33.7801 9.07068C33.8207 8.94586 33.7762 8.80913 33.6701 8.73198L30.3116 6.29191C30.0742 6.11941 30.1962 5.74388 30.4897 5.74388H34.641C34.7722 5.74388 34.8885 5.65937 34.9291 5.53456L36.2119 1.58643Z" fill="#04A2A2"/>
<path d="M50.8119 1.58643C50.9026 1.30733 51.2975 1.30733 51.3882 1.58643L52.671 5.53456C52.7115 5.65937 52.8279 5.74388 52.9591 5.74388H57.1104C57.4039 5.74388 57.5259 6.11941 57.2885 6.29191L53.93 8.73198C53.8238 8.80913 53.7794 8.94586 53.8199 9.07068L55.1028 13.0188C55.1935 13.2979 54.874 13.53 54.6366 13.3575L51.2781 10.9174C51.1719 10.8403 51.0282 10.8403 50.922 10.9174L47.5635 13.3575C47.3261 13.53 47.0066 13.2979 47.0973 13.0188L48.3802 9.07068C48.4207 8.94586 48.3763 8.80913 48.2701 8.73198L44.9116 6.29191C44.6742 6.11941 44.7962 5.74388 45.0897 5.74388H49.241C49.3722 5.74388 49.4886 5.65937 49.5291 5.53456L50.8119 1.58643Z" fill="#04A2A2"/>
<path d="M65.4119 1.58643C65.5026 1.30733 65.8975 1.30733 65.9881 1.58643L67.271 5.53456C67.3115 5.65937 67.4278 5.74388 67.5591 5.74388H71.7104C72.0038 5.74388 72.1259 6.11941 71.8884 6.29191L68.53 8.73198C68.4238 8.80913 68.3794 8.94586 68.4199 9.07068L69.7027 13.0188C69.7934 13.2979 69.474 13.53 69.2366 13.3575L65.8781 10.9174C65.7719 10.8403 65.6281 10.8403 65.522 10.9174L62.1635 13.3575C61.9261 13.53 61.6066 13.2979 61.6973 13.0188L62.9801 9.07068C63.0207 8.94586 62.9763 8.80913 62.8701 8.73198L59.5116 6.29191C59.2742 6.11941 59.3962 5.74388 59.6897 5.74388H63.841C63.9722 5.74388 64.0885 5.65937 64.1291 5.53456L65.4119 1.58643Z" fill="#04A2A2"/>
</svg>
