<svg width="497" height="220" viewBox="0 0 497 220" fill="none" xmlns="http://www.w3.org/2000/svg">
<mask id="path-1-inside-1_514_1014" fill="white">
<path d="M165.438 196.545C178.605 178.454 197.206 165.043 218.53 158.266C239.854 151.488 262.785 151.7 283.98 158.87C305.176 166.04 323.526 179.794 336.356 198.125C349.186 216.456 355.825 238.406 355.305 260.775C354.785 283.144 347.132 304.762 333.464 322.476C319.795 340.191 300.825 353.076 279.32 359.253C257.814 365.43 234.898 364.575 213.912 356.814C192.926 349.053 174.969 334.791 162.657 316.108L163.646 315.456C175.818 333.929 193.574 348.03 214.323 355.704C235.072 363.378 257.73 364.222 278.993 358.115C300.256 352.008 319.012 339.268 332.527 321.753C346.041 304.238 353.607 282.864 354.121 260.747C354.636 238.631 348.072 216.928 335.386 198.803C322.701 180.679 304.557 167.081 283.601 159.992C262.645 152.903 239.972 152.693 218.889 159.394C197.805 166.095 179.414 179.355 166.395 197.242L165.438 196.545Z"/>
</mask>
<path d="M165.438 196.545C178.605 178.454 197.206 165.043 218.53 158.266C239.854 151.488 262.785 151.7 283.98 158.87C305.176 166.04 323.526 179.794 336.356 198.125C349.186 216.456 355.825 238.406 355.305 260.775C354.785 283.144 347.132 304.762 333.464 322.476C319.795 340.191 300.825 353.076 279.32 359.253C257.814 365.43 234.898 364.575 213.912 356.814C192.926 349.053 174.969 334.791 162.657 316.108L163.646 315.456C175.818 333.929 193.574 348.03 214.323 355.704C235.072 363.378 257.73 364.222 278.993 358.115C300.256 352.008 319.012 339.268 332.527 321.753C346.041 304.238 353.607 282.864 354.121 260.747C354.636 238.631 348.072 216.928 335.386 198.803C322.701 180.679 304.557 167.081 283.601 159.992C262.645 152.903 239.972 152.693 218.889 159.394C197.805 166.095 179.414 179.355 166.395 197.242L165.438 196.545Z" stroke="#0078B2" stroke-width="4" mask="url(#path-1-inside-1_514_1014)"/>
<path d="M188.09 108.457C207.553 99.9771 228.496 95.4134 249.723 95.0268C270.95 94.6402 292.045 98.4384 311.804 106.204C331.563 113.97 349.599 125.552 364.882 140.289C380.165 155.025 392.396 172.627 400.876 192.09C409.356 211.553 413.92 232.496 414.307 253.723C414.693 274.95 410.895 296.045 403.129 315.804C395.363 335.563 383.781 353.599 369.045 368.882C354.308 384.165 336.706 396.396 317.243 404.876C297.78 413.356 276.837 417.92 255.61 418.307C234.383 418.693 213.288 414.895 193.529 407.129C173.77 399.363 155.734 387.781 140.451 373.045C125.168 358.308 112.938 340.706 104.457 321.243C95.9771 301.78 91.4134 280.837 91.0268 259.61C90.6402 238.383 94.4384 217.288 102.204 197.529C109.97 177.77 121.552 159.734 136.289 144.451C151.025 129.168 168.627 116.938 188.09 108.457L188.09 108.457Z" stroke="#158E7F" stroke-width="2"/>
<path d="M167.519 56.8137C193.283 45.5882 221.005 39.5472 249.103 39.0355C277.202 38.5238 305.126 43.5514 331.281 53.8314C357.436 64.1114 381.31 79.4424 401.541 98.949C421.771 118.456 437.961 141.756 449.186 167.519C460.412 193.283 466.453 221.005 466.965 249.103C467.476 277.202 462.449 305.126 452.169 331.281C441.889 357.436 426.558 381.31 407.051 401.541C387.544 421.771 364.244 437.961 338.481 449.186C312.717 460.412 284.995 466.453 256.897 466.965C228.798 467.476 200.874 462.449 174.719 452.169C148.564 441.889 124.69 426.558 104.459 407.051C84.2292 387.544 68.0392 364.244 56.8137 338.481C45.5882 312.717 39.5472 284.995 39.0355 256.897C38.5238 228.798 43.5514 200.874 53.8314 174.719C64.1114 148.564 79.4424 124.69 98.949 104.459C118.456 84.2292 141.756 68.0392 167.519 56.8137L167.519 56.8137Z" stroke="#0078B2" stroke-width="2"/>
<circle cx="229" cy="38" r="37.5" fill="#EBF4F4" stroke="#147BB5"/>
<path fill-rule="evenodd" clip-rule="evenodd" d="M222.644 32.586V54.0782C222.644 56.3341 224.49 58.1798 226.746 58.1798C229.002 58.1798 230.848 56.3341 230.848 54.0782V32.586C227.15 33.5766 225.993 31.6889 222.644 32.586ZM243.972 23.579C249.409 23.579 253.816 27.9862 253.816 33.4227C253.895 41.0458 245.239 45.8414 238.833 41.8197C237.78 42.1024 236.726 42.3852 235.672 42.6676C235.109 42.8265 234.57 42.3117 234.724 41.7332C235.008 40.6752 235.291 39.6181 235.575 38.5611C231.553 32.1542 236.351 23.5005 243.972 23.579Z" fill="#98DBDB"/>
<path d="M232.488 21.9219H231.668V17.8203C231.668 17.3673 231.301 17 230.847 17H222.644C222.191 17 221.824 17.3673 221.824 17.8203V21.9219H221.004C220.551 21.9219 220.183 22.2893 220.183 22.7422V26.8438C220.183 27.2968 220.551 27.6641 221.004 27.6641H221.824V54.0782C221.824 56.7921 224.032 59 226.746 59C229.46 59 231.668 56.7921 231.668 54.0782V27.6641H232.488C232.941 27.6641 233.308 27.2968 233.308 26.8438V22.7422C233.308 22.2893 232.941 21.9219 232.488 21.9219ZM223.465 18.6406H230.027V21.9219H223.465V18.6406ZM230.027 54.0782C230.027 55.8875 228.555 57.3594 226.746 57.3594C224.937 57.3594 223.465 55.8875 223.465 54.0782V27.6641H230.027V54.0782ZM231.668 26.0235H221.824V23.5626H231.668V26.0235ZM249.404 29.2218C248.488 28.2671 246.84 28.2671 245.924 29.2217L242.742 32.4035L242.021 31.6827C241.105 30.7282 239.457 30.728 238.541 31.6827C237.582 32.6421 237.582 34.2033 238.541 35.1627L241.002 37.6236C241.482 38.1034 242.112 38.3431 242.742 38.3431C243.372 38.3431 244.002 38.1033 244.482 37.6236L249.404 32.7017C250.363 31.7424 250.363 30.1812 249.404 29.2218ZM248.244 31.5417L243.322 36.4636C243.002 36.7834 242.482 36.7834 242.162 36.4636L239.701 34.0027C239.383 33.6976 239.383 33.148 239.701 32.8428C240.006 32.5248 240.556 32.5246 240.861 32.8429L242.162 34.1437C242.482 34.464 243.002 34.464 243.322 34.1437L247.084 30.3819V30.3818C247.877 29.6405 248.984 30.7471 248.244 31.5417Z" fill="#085682"/>
<circle cx="459" cy="179" r="37.5" fill="#EBF4F4" stroke="#147BB5"/>
<g clip-path="url(#clip0_514_1014)">
<path fill-rule="evenodd" clip-rule="evenodd" d="M458.505 177.418C464.836 177.418 469.999 172.254 469.999 165.923C469.411 150.697 447.596 150.702 447.01 165.923C447.01 172.254 452.174 177.418 458.505 177.418Z" fill="#98DBDB"/>
<path d="M481.646 169.363C480.6 168.788 479.006 168.904 477.979 170.519C477.969 170.531 474.127 176.826 474.117 176.839C473.09 176.214 471.631 176.438 470.876 177.383C470.356 178.008 467.163 182.022 466.619 182.676C464.155 185.554 460.344 186.721 458.505 190.46C456.665 186.721 452.854 185.553 450.39 182.676C449.847 182.021 446.654 178.008 446.133 177.383C445.379 176.438 443.919 176.214 442.892 176.839C442.883 176.825 439.039 170.532 439.03 170.519C436.992 167.322 432.88 169.884 434.288 172.9C435.648 175.932 437.923 181.623 439.477 184.988C440.934 188.193 441.587 189.094 444.139 191.413L447.59 194.55V194.87H447.01C446.492 194.87 446.072 195.29 446.072 195.809V201.556C446.072 202.074 446.492 202.495 447.01 202.495H469.999C470.518 202.495 470.938 202.074 470.938 201.556V195.809C470.938 195.29 470.518 194.87 469.999 194.87H469.42V194.55L472.871 191.413C475.422 189.094 476.076 188.193 477.533 184.988C478.652 182.526 479.973 179.374 481.035 176.841C481.793 175.031 482.448 173.468 482.718 172.909C483.35 171.574 482.889 170.045 481.646 169.363ZM449.16 193.44L445.401 190.023C443.046 187.883 442.534 187.177 441.186 184.211C439.646 180.876 437.329 175.087 435.986 172.099C435.712 171.511 436.033 171.137 436.267 171.008C436.66 170.792 437.098 170.984 437.442 171.52L441.718 178.518C441.638 179.029 441.702 179.665 442.013 180.451C442.907 182.71 444.014 184.965 445.052 186.64C445.325 187.081 445.904 187.217 446.344 186.943C446.785 186.67 446.921 186.092 446.648 185.651C445.666 184.067 444.613 181.92 443.759 179.761C443.389 178.825 443.639 178.615 443.733 178.536C444.003 178.297 444.461 178.301 444.689 178.583C445.231 179.236 448.424 183.249 448.946 183.876C451.949 187.514 457.071 188.483 457.566 193.981V194.87H449.467V194.135C449.467 194.004 449.44 193.874 449.387 193.755C449.334 193.635 449.257 193.528 449.16 193.44ZM447.949 196.747H457.566V200.617H447.949V196.747ZM469.06 200.617H459.443V196.747H469.06L469.06 200.617ZM481.024 172.099C479.67 175.106 477.371 180.86 475.823 184.211C474.475 187.177 473.963 187.883 471.608 190.024L467.849 193.44C467.753 193.528 467.675 193.635 467.622 193.755C467.569 193.874 467.542 194.004 467.542 194.135V194.87H459.444V193.981C459.938 188.484 465.061 187.514 468.064 183.876C468.585 183.249 471.778 179.236 472.32 178.583C472.548 178.302 473.006 178.297 473.276 178.536C473.37 178.615 473.621 178.825 473.25 179.761C472.396 181.92 471.343 184.067 470.361 185.651C470.088 186.092 470.224 186.67 470.665 186.943C471.105 187.217 471.684 187.081 471.957 186.64C472.995 184.966 474.103 182.71 474.996 180.452C475.308 179.665 475.371 179.029 475.291 178.519L479.567 171.52C479.911 170.984 480.35 170.792 480.742 171.008C480.976 171.137 481.298 171.511 481.024 172.099Z" fill="#085682"/>
<path d="M452.758 169.257H455.171V171.67C455.171 172.189 455.592 172.609 456.11 172.609H460.899C461.418 172.609 461.838 172.189 461.838 171.67V169.257H464.252C464.77 169.257 465.191 168.836 465.191 168.318V163.529C465.191 163.01 464.77 162.59 464.252 162.59H461.838V160.176C461.838 159.658 461.418 159.237 460.899 159.237H456.11C455.592 159.237 455.171 159.658 455.171 160.176V162.59H452.758C452.239 162.59 451.819 163.01 451.819 163.529V168.318C451.819 168.836 452.239 169.257 452.758 169.257ZM453.696 164.467H456.11C456.628 164.467 457.049 164.047 457.049 163.529V161.115H459.961V163.529C459.961 164.047 460.381 164.467 460.899 164.467H463.313V167.379H460.899C460.381 167.379 459.961 167.8 459.961 168.318V170.732H457.049V168.318C457.049 167.8 456.628 167.379 456.11 167.379H453.696V164.467Z" fill="#085682"/>
</g>
<defs>
<clipPath id="clip0_514_1014">
<rect width="49" height="49" fill="white" transform="translate(434 154)"/>
</clipPath>
</defs>
</svg>
