<svg width="36" height="36" viewBox="0 0 36 36" fill="none" xmlns="http://www.w3.org/2000/svg">
<circle cx="18" cy="18" r="18" fill="#147BB5"/>
<path fill-rule="evenodd" clip-rule="evenodd" d="M18.7674 10.6932C18.7675 10.5925 18.7477 10.4928 18.7092 10.3997C18.6707 10.3066 18.6143 10.222 18.5431 10.1508C18.4719 10.0795 18.3874 10.0229 18.2944 9.98435C18.2014 9.94575 18.1016 9.92584 18.0009 9.92578C17.9002 9.92572 17.8005 9.9455 17.7074 9.98399C17.6143 10.0225 17.5297 10.0789 17.4585 10.1501C17.3872 10.2213 17.3306 10.3058 17.292 10.3988C17.2534 10.4918 17.2335 10.5916 17.2335 10.6923L17.2335 17.2335L10.6932 17.2326C10.4897 17.2326 10.2945 17.3134 10.1505 17.4573C10.0066 17.6013 9.92577 17.7965 9.92577 18C9.92577 18.2035 10.0066 18.3987 10.1505 18.5427C10.2945 18.6866 10.4897 18.7674 10.6932 18.7674L17.2335 18.7665L17.2325 25.3068C17.2325 25.4076 17.2524 25.5073 17.291 25.6005C17.3295 25.6936 17.3861 25.7782 17.4573 25.8494C17.5286 25.9207 17.6132 25.9772 17.7063 26.0158C17.7994 26.0544 17.8992 26.0742 18 26.0742C18.2035 26.0742 18.3987 25.9934 18.5427 25.8494C18.6139 25.7782 18.6704 25.6936 18.709 25.6005C18.7476 25.5073 18.7674 25.4076 18.7674 25.3068L18.7665 18.7665H25.3077C25.5111 18.7664 25.7061 18.6855 25.8499 18.5415C25.9936 18.3976 26.0743 18.2025 26.0742 17.9991C26.0741 17.7956 25.9931 17.6006 25.8492 17.4569C25.7053 17.3131 25.5102 17.2324 25.3068 17.2326L18.7665 17.2335L18.7674 10.6932Z" fill="white"/>
</svg>
