<svg width="11" height="6" viewBox="0 0 11 6" fill="none" xmlns="http://www.w3.org/2000/svg">
<path d="M10.05 1.1875L5.85001 5.4C5.80001 5.45 5.74585 5.4855 5.68751 5.5065C5.62918 5.5275 5.56668 5.53784 5.50001 5.5375C5.43335 5.5375 5.37085 5.52717 5.31251 5.5065C5.25418 5.48584 5.20001 5.45034 5.15001 5.4L0.937512 1.1875C0.820845 1.07084 0.762512 0.925002 0.762512 0.750002C0.762512 0.575002 0.825012 0.425003 0.950012 0.300003C1.07501 0.175003 1.22085 0.112503 1.38751 0.112503C1.55418 0.112503 1.70001 0.175003 1.82501 0.300003L5.50001 3.975L9.17501 0.300002C9.29168 0.183336 9.43551 0.125002 9.60651 0.125002C9.77751 0.125002 9.92535 0.187502 10.05 0.312502C10.175 0.437502 10.2375 0.583335 10.2375 0.750002C10.2375 0.916669 10.175 1.0625 10.05 1.1875Z" fill="white"/>
</svg>
