<svg width="26" height="30" viewBox="0 0 26 30" fill="none" xmlns="http://www.w3.org/2000/svg">
<path d="M15.3438 13.5938C15.0203 13.5938 14.7578 13.8563 14.7578 14.1797C14.7578 14.5031 15.0203 14.7656 15.3438 14.7656C15.6672 14.7656 15.9297 14.5031 15.9297 14.1797C15.9297 13.8563 15.6672 13.5938 15.3438 13.5938ZM13 10.0781C12.6766 10.0781 12.4141 10.3406 12.4141 10.6641C12.4141 10.9875 12.6766 11.25 13 11.25C13.3234 11.25 13.5859 10.9875 13.5859 10.6641C13.5859 10.3406 13.3234 10.0781 13 10.0781ZM5.96875 25.3125C5.64531 25.3125 5.38281 25.575 5.38281 25.8984C5.38281 26.2219 5.64531 26.4844 5.96875 26.4844C6.29219 26.4844 6.55469 26.2219 6.55469 25.8984C6.55469 25.575 6.29219 25.3125 5.96875 25.3125Z" fill="#147BB5"/>
<path d="M24.626 23.8874L17.1016 10.5106V3.4152C17.7837 3.17338 18.2735 2.52176 18.2735 1.75781C18.2735 0.788555 17.4849 0 16.5157 0H9.48443C8.51517 0 7.72662 0.788555 7.72662 1.75781C7.72662 2.52176 8.2164 3.17338 8.89849 3.4152V10.5106L1.37412 23.8874C0.651775 25.1715 0.664607 26.6975 1.40834 27.9692C2.15201 29.2408 3.47552 30 4.94869 30H21.0514C22.5246 30 23.848 29.2408 24.5918 27.9692C25.3355 26.6975 25.3483 25.1715 24.626 23.8874ZM9.99513 10.9513C10.0445 10.8636 10.0704 10.7647 10.0704 10.6641V3.51562H10.6563C10.9799 3.51562 11.2422 3.25324 11.2422 2.92969C11.2422 2.60613 10.9799 2.34375 10.6563 2.34375H9.48443C9.16135 2.34375 8.89849 2.0809 8.89849 1.75781C8.89849 1.43473 9.16135 1.17188 9.48443 1.17188H16.5157C16.8388 1.17188 17.1016 1.43473 17.1016 1.75781C17.1016 2.0809 16.8388 2.34375 16.5157 2.34375H15.3438C15.0203 2.34375 14.7579 2.60613 14.7579 2.92969C14.7579 3.25324 15.0203 3.51562 15.3438 3.51562H15.9297V10.6641C15.9297 10.7647 15.9556 10.8636 16.005 10.9513L19.4586 17.0912C17.3495 16.9204 15.2477 17.3469 13.3167 18.3468C10.8343 19.6314 8.07086 19.8576 5.46513 19.0046L9.99513 10.9513ZM23.5802 27.3776C23.049 28.2858 22.1036 28.8281 21.0514 28.8281H4.94869C3.89646 28.8281 2.95111 28.2858 2.41996 27.3776C1.88869 26.4692 1.87949 25.3792 2.39552 24.4618L4.88037 20.0443C6.08599 20.4653 7.33193 20.6779 8.59738 20.6779C8.7847 20.6779 8.9725 20.6732 9.16064 20.6639C10.7957 20.5829 12.3752 20.1535 13.8554 19.3875C15.8354 18.3623 18.0132 18.0084 20.1708 18.3574L23.6046 24.4618C24.1206 25.3792 24.1115 26.4692 23.5802 27.3776Z" fill="#147BB5"/>
<path d="M10.6562 13.5938C9.68699 13.5938 8.89844 14.3823 8.89844 15.3516C8.89844 16.3208 9.68699 17.1094 10.6562 17.1094C11.6255 17.1094 12.4141 16.3208 12.4141 15.3516C12.4141 14.3823 11.6255 13.5938 10.6562 13.5938ZM10.6562 15.9375C10.3332 15.9375 10.0703 15.6746 10.0703 15.3516C10.0703 15.0285 10.3332 14.7656 10.6562 14.7656C10.9793 14.7656 11.2422 15.0285 11.2422 15.3516C11.2422 15.6746 10.9793 15.9375 10.6562 15.9375ZM20.0312 25.3125H8.3125C7.98895 25.3125 7.72656 25.5749 7.72656 25.8984C7.72656 26.222 7.98895 26.4844 8.3125 26.4844H20.0312C20.3548 26.4844 20.6172 26.222 20.6172 25.8984C20.6172 25.5749 20.3548 25.3125 20.0312 25.3125Z" fill="#147BB5"/>
</svg>
