<svg width="36" height="36" viewBox="0 0 36 36" fill="none" xmlns="http://www.w3.org/2000/svg">
<circle cx="18" cy="18" r="18" transform="matrix(-4.37114e-08 1 1 4.37114e-08 0 0)" fill="#F1F1F1"/>
<path d="M16.9167 24.0667L22.5333 18.4667C22.6 18.4 22.6473 18.3278 22.6753 18.25C22.7033 18.1722 22.7171 18.0889 22.7167 18C22.7167 17.9111 22.7027 17.8278 22.6747 17.75C22.6467 17.6722 22.5996 17.6 22.5333 17.5333L16.9167 11.9167C16.7611 11.7611 16.5667 11.6833 16.3333 11.6833C16.1 11.6833 15.9 11.7667 15.7333 11.9333C15.5667 12.1 15.4833 12.2945 15.4833 12.5167C15.4833 12.7389 15.5667 12.9333 15.7333 13.1L20.6333 18L15.7333 22.9C15.5778 23.0556 15.5 23.2473 15.5 23.4753C15.5 23.7033 15.5833 23.9005 15.75 24.0667C15.9167 24.2333 16.1111 24.3167 16.3333 24.3167C16.5556 24.3167 16.75 24.2333 16.9167 24.0667Z" fill="#444444"/>
</svg>
