<svg width="164" height="50" viewBox="0 0 164 50" fill="none" xmlns="http://www.w3.org/2000/svg">
<mask id="mask0_170_1623" style="mask-type:luminance" maskUnits="userSpaceOnUse" x="0" y="0" width="164" height="50">
<path d="M163.506 0.266161H0.487656V49.2858H163.506V0.266161Z" fill="white"/>
</mask>
<g mask="url(#mask0_170_1623)">
<path d="M66.775 12.4231C70.3103 12.4231 72.078 13.8937 72.078 16.8349C72.078 18.9918 71.4888 20.6584 70.0157 21.9329C68.6409 23.2074 66.8732 23.8937 64.8109 23.8937H60.1954L62.0612 12.4231H66.775Z" fill="white"/>
<path fill-rule="evenodd" clip-rule="evenodd" d="M103.111 49.2858H11.1918C5.79056 49.2858 1.37138 44.776 1.37138 39.4819V10.0701C1.37138 4.67792 5.79056 0.266161 11.1918 0.266161H111.164L103.111 49.2858ZM42.5187 38.0114C42.5187 40.1682 43.3043 41.2467 45.072 41.2467C45.8576 41.2467 46.5451 41.0506 47.0361 40.5604C47.7235 39.9722 48.1163 39.1878 48.1163 38.2074L48.5091 10.8545C48.6073 9.67802 48.2145 8.69763 47.4289 7.91331C46.6433 7.129 45.6612 6.73684 44.4828 6.73684C42.1259 6.73684 40.5546 7.91331 39.5726 10.1682L30.3415 32.031H30.1451L27.69 10.1682C27.4936 7.91331 26.2169 6.73684 23.9582 6.73684C22.7798 6.73684 21.6995 7.129 20.7175 7.91331C19.7355 8.69763 19.048 9.67802 18.6552 10.8545C17.3153 15.2557 16.1086 19.1631 15.0519 22.5852C13.7074 26.9383 12.6057 30.5061 11.781 33.3055L10.6025 37.129C10.3079 38.0114 10.2097 38.5996 10.2097 38.9918C10.2097 40.4624 10.9954 41.2467 12.4684 41.2467C13.5486 41.2467 14.4325 40.9526 15.0217 40.2663C15.5127 39.7761 15.9055 38.8937 16.2001 37.7173L22.7798 15.0702H22.878L25.6277 37.3251C25.9223 39.678 27.0025 40.8545 28.7702 40.8545C30.5379 40.8545 32.0109 39.678 32.993 37.3251L42.8133 15.0702H42.9115L42.5187 37.7173V38.0114ZM58.0349 37.5212L59.4097 29.1878H65.3019C66.9714 29.1878 68.5427 28.8937 70.0157 28.3055C72.569 27.4231 74.6313 25.7565 76.1043 23.5016C77.5774 21.2467 78.363 18.6976 78.363 15.9525C78.363 13.1094 77.381 10.8545 75.4169 9.28586C73.6493 7.81527 71.1942 7.129 68.2481 7.129H60.5882C58.2313 7.129 56.7582 8.40351 56.2672 10.9525L52.1427 37.5212C52.0445 37.9133 52.0445 38.3055 52.0445 38.6976C52.0445 40.3643 52.9283 41.2467 54.4995 41.2467C56.4636 41.2467 57.6421 40.0702 58.0349 37.5212ZM90.0493 37.4231L93.9774 12.5212V12.6192H98.6917C101.441 12.6192 102.816 11.5408 102.816 9.3839C102.816 7.91331 101.736 7.129 99.4773 7.129H84.2552C81.5055 7.129 80.0325 8.20743 79.9343 10.3643C79.9343 11.8349 81.0145 12.6192 83.2732 12.6192H87.987L84.0588 37.5212C83.9606 37.8152 83.9606 38.2074 83.9606 38.5015C83.9606 40.3642 84.8445 41.2467 86.4157 41.2467C88.478 41.2467 89.6564 39.9722 90.0493 37.4231Z" fill="white"/>
<path fill-rule="evenodd" clip-rule="evenodd" d="M108.021 49.2858H152.802C158.301 49.2858 162.622 44.776 162.622 39.4819V10.0701C162.622 4.67792 158.203 0.266161 152.802 0.266161H116.074L108.021 49.2858ZM150.641 26.8348C152.409 26.8348 153.391 25.9525 153.686 24.0897C153.98 22.227 153.293 21.2466 151.722 21.2466H139.937L141.607 9.48189C141.803 7.81523 141.017 6.93287 139.152 6.93287C137.187 6.93287 136.107 7.81523 135.911 9.48189L134.241 21.2466H122.457C120.787 21.2466 119.805 22.1289 119.511 23.9917C119.314 24.776 119.511 25.3642 119.904 25.9525C120.296 26.5407 120.787 26.8348 121.573 26.8348H133.358L131.688 38.6975C131.393 40.4623 132.277 41.3446 134.143 41.3446C136.009 41.3446 137.089 40.4623 137.286 38.7956L138.955 26.8348H150.641Z" fill="white"/>
</g>
</svg>
