<svg width="30" height="30" viewBox="0 0 30 30" fill="none" xmlns="http://www.w3.org/2000/svg">
<path d="M20.0363 19.2397C19.3254 19.2397 18.7472 18.7392 18.7472 18.124C18.7472 17.5087 19.3254 17.0082 20.0363 17.0082C20.7471 17.0082 21.3253 17.5087 21.3253 18.124C21.3253 18.4475 21.5877 18.7099 21.9113 18.7099C22.2348 18.7099 22.4972 18.4475 22.4972 18.124C22.4972 17.0503 21.6971 16.1474 20.6222 15.9024V15.5977C20.6222 15.2741 20.3598 15.0117 20.0363 15.0117C19.7127 15.0117 19.4503 15.2741 19.4503 15.5977V15.9024C18.3754 16.1474 17.5753 17.0503 17.5753 18.124C17.5753 19.3853 18.6793 20.4115 20.0363 20.4115C20.7471 20.4115 21.3253 20.9121 21.3253 21.5273C21.3253 22.1425 20.7471 22.643 20.0363 22.643C19.3254 22.643 18.7472 22.1425 18.7472 21.5273C18.7472 21.2037 18.4848 20.9413 18.1613 20.9413C17.8377 20.9413 17.5753 21.2037 17.5753 21.5273C17.5753 22.601 18.3754 23.5038 19.4503 23.7489V24.002C19.4503 24.3255 19.7127 24.5879 20.0363 24.5879C20.3598 24.5879 20.6222 24.3255 20.6222 24.002V23.7489C21.6971 23.5038 22.4972 22.601 22.4972 21.5273C22.4972 20.2659 21.3932 19.2397 20.0363 19.2397ZM26.4539 15.7544C25.6902 14.5632 24.6106 13.6078 23.3354 12.9946C23.0437 12.8543 22.6936 12.9771 22.5534 13.2688C22.4132 13.5605 22.536 13.9105 22.8277 14.0507C25.049 15.1185 26.4843 17.4001 26.4843 19.8633C26.4843 20.9173 26.2245 21.9625 25.733 22.8862C25.581 23.1718 25.6894 23.5267 25.9751 23.6787C26.1123 23.7517 26.2728 23.7672 26.4214 23.7218C26.5701 23.6764 26.6946 23.5738 26.7676 23.4366C27.3489 22.3442 27.6561 21.1085 27.6561 19.8633C27.6561 18.4008 27.2404 16.9799 26.4539 15.7544ZM20.9573 12.2462L20.9179 12.2461C20.5943 12.2461 20.3319 12.5084 20.3319 12.832C20.3319 13.1556 20.5943 13.418 20.9179 13.418L20.9518 13.418H20.9546C21.2769 13.418 21.5389 13.1575 21.5405 12.8348C21.5419 12.5112 21.2808 12.2477 20.9573 12.2462ZM17.2503 25.6758C15.029 24.608 13.5938 22.3264 13.5938 19.8633C13.5938 18.8093 13.8536 17.764 14.345 16.8404C14.497 16.5547 14.3886 16.1999 14.1029 16.0479C13.8173 15.8959 13.4624 16.0042 13.3104 16.2899C12.7291 17.3824 12.4219 18.618 12.4219 19.8633C12.4219 21.3258 12.8376 22.7466 13.6241 23.9722C14.3878 25.1633 15.4674 26.1188 16.7426 26.732C16.8822 26.796 17.0413 26.8025 17.1857 26.7504C17.33 26.6982 17.4482 26.5914 17.5147 26.4531C17.5812 26.3147 17.5908 26.1558 17.5413 26.0104C17.4919 25.8651 17.3874 25.7449 17.2503 25.6758ZM19.1602 26.3086L19.1262 26.3085C18.8012 26.3079 18.5391 26.568 18.5377 26.8917C18.5361 27.2153 18.7973 27.4788 19.1209 27.4804L19.1602 27.4805C19.4837 27.4805 19.7461 27.2181 19.7461 26.8945C19.7461 26.571 19.4837 26.3086 19.1602 26.3086Z" fill="#147BB5"/>
<path d="M22.6997 10.2637C22.6293 10.0958 22.5421 9.93544 22.4394 9.78514H23.9648C25.451 9.78514 26.6601 8.576 26.6601 7.08983C26.6601 5.60366 25.451 4.39452 23.9648 4.39452H19.2726C19.5814 3.94655 19.7466 3.41519 19.7461 2.87109C19.7461 1.38492 18.5369 0.175781 17.0507 0.175781H2.69531C1.20914 0.175781 0 1.38492 0 2.87109C0 4.35726 1.20914 5.5664 2.69531 5.5664H7.38749C7.08919 6.00011 6.91405 6.52481 6.91405 7.08983C6.91405 7.65485 7.08913 8.17955 7.38749 8.61327H5.85936C4.37319 8.61327 3.16406 9.8224 3.16406 11.3086C3.16406 12.1621 3.56331 12.9238 4.18446 13.4179C3.56331 13.9121 3.16406 14.6738 3.16406 15.5273C3.16406 16.3808 3.56331 17.1425 4.18446 17.6367C3.56331 18.1309 3.16406 18.8925 3.16406 19.7461C3.16406 20.5996 3.56331 21.3612 4.18446 21.8554C3.56331 22.3496 3.16406 23.1113 3.16406 23.9648C3.16406 25.451 4.37319 26.6601 5.85936 26.6601H12.7646C14.5837 28.6058 17.1716 29.8242 20.0391 29.8242C25.5315 29.8242 30 25.3558 30 19.8633C30 15.292 26.9045 11.4306 22.6997 10.2637ZM23.9648 5.5664C24.8049 5.5664 25.4882 6.24983 25.4882 7.08983C25.4882 7.92983 24.8049 8.61327 23.9648 8.61327H9.60936C8.7693 8.61327 8.08592 7.92983 8.08592 7.08983C8.08592 6.24983 8.7693 5.5664 9.60936 5.5664H23.9648ZM2.69531 4.39452C1.85525 4.39452 1.17187 3.71109 1.17187 2.87109C1.17187 2.03109 1.85525 1.34765 2.69531 1.34765H17.0507C17.8908 1.34765 18.5742 2.03109 18.5742 2.87109C18.5742 3.71109 17.8908 4.39452 17.0507 4.39452H2.69531ZM5.85936 9.78514H20.2148C20.4508 9.78514 20.6768 9.83998 20.8795 9.93818C20.6024 9.91492 20.3222 9.90238 20.0391 9.90238C17.2884 9.90238 14.7947 11.0232 12.9903 12.832H5.85936C5.01937 12.832 4.33593 12.1486 4.33593 11.3086C4.33593 10.4686 5.01937 9.78514 5.85936 9.78514ZM5.85936 14.0039H11.9891C11.324 14.9152 10.8097 15.943 10.4831 17.0507H5.85936C5.01931 17.0507 4.33593 16.3674 4.33593 15.5273C4.33593 14.6873 5.01931 14.0039 5.85936 14.0039ZM5.85936 18.2226H10.214C10.1237 18.7648 10.0782 19.3136 10.0782 19.8633C10.0782 20.3406 10.1127 20.8099 10.1779 21.2695H5.85936C5.01931 21.2695 4.33593 20.5861 4.33593 19.7461C4.33593 18.906 5.01931 18.2226 5.85936 18.2226ZM5.85936 25.4882C5.01931 25.4882 4.33593 24.8049 4.33593 23.9648C4.33593 23.1247 5.01931 22.4414 5.85936 22.4414H10.4171C10.7094 23.5294 11.1848 24.5598 11.823 25.4882H5.85936ZM20.0391 28.6523C15.1928 28.6523 11.25 24.7096 11.25 19.8633C11.25 15.017 15.1928 11.0743 20.0391 11.0743C24.8854 11.0743 28.8281 15.017 28.8281 19.8633C28.8281 24.7096 24.8854 28.6523 20.0391 28.6523Z" fill="#147BB5"/>
</svg>
