<svg width="12" height="15" viewBox="0 0 12 15" fill="none" xmlns="http://www.w3.org/2000/svg">
<path d="M6 0C2.89018 0 0.375 2.3475 0.375 5.25C0.375 9.1875 6 15 6 15C6 15 11.625 9.1875 11.625 5.25C11.625 2.3475 9.10982 0 6 0ZM6 7.125C5.4672 7.125 4.95622 6.92746 4.57947 6.57583C4.20273 6.22419 3.99107 5.74728 3.99107 5.25C3.99107 4.75272 4.20273 4.27581 4.57947 3.92417C4.95622 3.57254 5.4672 3.375 6 3.375C6.5328 3.375 7.04378 3.57254 7.42053 3.92417C7.79727 4.27581 8.00893 4.75272 8.00893 5.25C8.00893 5.74728 7.79727 6.22419 7.42053 6.57583C7.04378 6.92746 6.5328 7.125 6 7.125Z" fill="white"/>
</svg>
