<svg width="26" height="26" viewBox="0 0 26 26" fill="none" xmlns="http://www.w3.org/2000/svg">
<g clip-path="url(#clip0_203_581)">
<circle cx="13" cy="13" r="12.3" stroke="#147BB5" stroke-width="1.4"/>
<path d="M13.5226 16.6455H11.9553C11.9609 16.0569 12.0087 15.5757 12.0985 15.2017C12.194 14.8216 12.3485 14.4752 12.562 14.1625C12.7755 13.8498 13.0591 13.4942 13.413 13.0957C13.6714 12.8075 13.9074 12.5378 14.1208 12.2864C14.3399 12.0289 14.5169 11.753 14.6517 11.4587C14.7865 11.1583 14.8539 10.7997 14.8539 10.3828C14.8539 9.95974 14.7837 9.59495 14.6433 9.2884C14.5085 8.98185 14.3062 8.74581 14.0366 8.58028C13.7726 8.41474 13.4439 8.33198 13.0507 8.33198C12.7249 8.33198 12.4159 8.39635 12.1238 8.5251C11.8317 8.65385 11.5958 8.8531 11.416 9.12286C11.2363 9.38649 11.1436 9.73289 11.138 10.1621H9.5791C9.59034 9.46926 9.74763 8.87456 10.051 8.37796C10.3599 7.88135 10.7756 7.50124 11.2981 7.23761C11.8205 6.97398 12.4047 6.84216 13.0507 6.84216C13.7641 6.84216 14.3708 6.98317 14.8708 7.2652C15.3764 7.54722 15.7612 7.95186 16.0252 8.47912C16.2892 9.00025 16.4212 9.61947 16.4212 10.3368C16.4212 10.8886 16.3173 11.3974 16.1094 11.8634C15.9072 12.3232 15.646 12.7554 15.3258 13.1601C15.0056 13.5647 14.6657 13.951 14.3062 14.3188C13.9973 14.6315 13.7894 14.984 13.6827 15.3764C13.5759 15.7688 13.5226 16.1918 13.5226 16.6455ZM11.8879 19.5608C11.8879 19.2849 11.9665 19.0519 12.1238 18.8618C12.2811 18.6718 12.5086 18.5767 12.8064 18.5767C13.1097 18.5767 13.34 18.6718 13.4973 18.8618C13.6546 19.0519 13.7332 19.2849 13.7332 19.5608C13.7332 19.8244 13.6546 20.0512 13.4973 20.2413C13.34 20.4313 13.1097 20.5264 12.8064 20.5264C12.5086 20.5264 12.2811 20.4313 12.1238 20.2413C11.9665 20.0512 11.8879 19.8244 11.8879 19.5608Z" fill="#147BB5"/>
</g>
<defs>
<clipPath id="clip0_203_581">
<rect width="26" height="26" fill="white"/>
</clipPath>
</defs>
</svg>
