<svg width="36" height="36" viewBox="0 0 36 36" fill="none" xmlns="http://www.w3.org/2000/svg">
<circle cx="18" cy="18" r="18" transform="rotate(90 18 18)" fill="#F1F1F1"/>
<path d="M19.0833 24.0667L13.4667 18.4667C13.4 18.4 13.3527 18.3278 13.3247 18.25C13.2967 18.1722 13.2829 18.0889 13.2833 18C13.2833 17.9111 13.2973 17.8278 13.3253 17.75C13.3533 17.6722 13.4004 17.6 13.4667 17.5333L19.0833 11.9167C19.2389 11.7611 19.4333 11.6833 19.6667 11.6833C19.9 11.6833 20.1 11.7667 20.2667 11.9333C20.4333 12.1 20.5167 12.2945 20.5167 12.5167C20.5167 12.7389 20.4333 12.9333 20.2667 13.1L15.3667 18L20.2667 22.9C20.4222 23.0556 20.5 23.2473 20.5 23.4753C20.5 23.7033 20.4167 23.9005 20.25 24.0667C20.0833 24.2333 19.8889 24.3167 19.6667 24.3167C19.4444 24.3167 19.25 24.2333 19.0833 24.0667Z" fill="#444444"/>
</svg>
