<svg width="18" height="18" viewBox="0 0 18 18" fill="none" xmlns="http://www.w3.org/2000/svg">
<g clip-path="url(#clip0_170_1651)">
<path d="M17.5382 16.1469L12.5843 11.1921C13.5581 9.99569 14.09 8.49789 14.0898 6.95262C14.0898 3.23041 11.062 0.202614 7.33907 0.202614C3.61711 0.202614 0.589355 3.23041 0.589355 6.95262C0.589355 10.6749 3.61711 13.7026 7.33907 13.7026C8.88264 13.7038 10.3798 13.1723 11.5798 12.1973L16.5336 17.152C16.6004 17.2184 16.6906 17.2557 16.7845 17.2557C16.8784 17.2557 16.9686 17.2184 17.0354 17.152L17.5382 16.649C17.5711 16.616 17.5972 16.5769 17.615 16.5338C17.6328 16.4907 17.642 16.4445 17.642 16.3979C17.642 16.3512 17.6328 16.3051 17.615 16.262C17.5972 16.2189 17.5711 16.1797 17.5382 16.1469ZM7.33907 12.2816C4.40092 12.2816 2.00985 9.89138 2.00985 6.95262C2.00985 4.01388 4.40187 1.62367 7.34001 1.62367C10.2791 1.62367 12.6692 4.01388 12.6692 6.95262C12.6692 9.89138 10.2781 12.2816 7.33907 12.2816Z" fill="#444444"/>
</g>
<defs>
<clipPath id="clip0_170_1651">
<rect width="18" height="18" fill="white"/>
</clipPath>
</defs>
</svg>
