<svg width="32" height="29" viewBox="0 0 32 29" fill="none"
                                    xmlns="http://www.w3.org/2000/svg">
                                    <path
                                        d="M15.5245 0.463525C15.6741 0.00286925 16.3259 0.00286996 16.4755 0.463525L19.7045 10.4012C19.7714 10.6072 19.9634 10.7467 20.18 10.7467L30.6291 10.7467C31.1135 10.7467 31.3149 11.3665 30.923 11.6512L22.4695 17.7931C22.2943 17.9204 22.2209 18.1461 22.2879 18.3521L25.5168 28.2898C25.6665 28.7504 25.1393 29.1335 24.7474 28.8488L16.2939 22.7069C16.1186 22.5796 15.8814 22.5796 15.7061 22.7069L7.2526 28.8488C6.86074 29.1335 6.3335 28.7504 6.48318 28.2898L9.71213 18.3521C9.77907 18.1461 9.70574 17.9204 9.5305 17.7931L1.07699 11.6512C0.68513 11.3665 0.886519 10.7467 1.37088 10.7467L11.82 10.7467C12.0366 10.7467 12.2286 10.6072 12.2955 10.4012L15.5245 0.463525Z"
                                        fill="#04A2A2" />
                                </svg>