                        <svg width="200" height="185" viewBox="0 0 200 185" fill="none"
                            xmlns="http://www.w3.org/2000/svg">
                            <path
                                d="M122.903 1.44346C124.719 0.010621 127.281 0.01062 129.097 1.44346L141.68 11.3712C143.047 12.4496 144.876 12.7394 146.51 12.1361L161.545 6.58266C163.715 5.78115 166.151 6.57281 167.436 8.49673L176.335 21.827C177.302 23.275 178.952 24.1159 180.692 24.0468L196.707 23.4113C199.018 23.3195 201.091 24.8254 201.718 27.052L206.063 42.4799C206.535 44.1558 207.844 45.4655 209.52 45.9374L224.948 50.282C227.175 50.909 228.68 52.9816 228.589 55.293L227.953 71.3084C227.884 73.048 228.725 74.6984 230.173 75.6651L243.503 84.5645C245.427 85.8489 246.219 88.2854 245.417 90.4553L239.864 105.49C239.261 107.124 239.55 108.953 240.629 110.32L250.557 122.903C251.989 124.719 251.989 127.281 250.557 129.097L240.629 141.68C239.55 143.047 239.261 144.876 239.864 146.51L245.417 161.545C246.219 163.715 245.427 166.151 243.503 167.436L230.173 176.335C228.725 177.302 227.884 178.952 227.953 180.692L228.589 196.707C228.68 199.018 227.175 201.091 224.948 201.718L209.52 206.063C207.844 206.535 206.535 207.844 206.063 209.52L201.718 224.948C201.091 227.175 199.018 228.68 196.707 228.589L180.692 227.953C178.952 227.884 177.302 228.725 176.335 230.173L167.436 243.503C166.151 245.427 163.715 246.219 161.545 245.417L146.51 239.864C144.876 239.261 143.047 239.55 141.68 240.629L129.097 250.557C127.281 251.989 124.719 251.989 122.903 250.557L110.32 240.629C108.953 239.55 107.124 239.261 105.49 239.864L90.4553 245.417C88.2854 246.219 85.8489 245.427 84.5645 243.503L75.6651 230.173C74.6984 228.725 73.048 227.884 71.3084 227.953L55.293 228.589C52.9816 228.68 50.909 227.175 50.282 224.948L45.9374 209.52C45.4655 207.844 44.1558 206.535 42.4799 206.063L27.052 201.718C24.8254 201.091 23.3195 199.018 23.4113 196.707L24.0468 180.692C24.1159 178.952 23.275 177.302 21.827 176.335L8.49673 167.436C6.57281 166.151 5.78115 163.715 6.58266 161.545L12.1361 146.51C12.7394 144.876 12.4496 143.047 11.3712 141.68L1.44346 129.097C0.010621 127.281 0.01062 124.719 1.44346 122.903L11.3712 110.32C12.4496 108.953 12.7394 107.124 12.1361 105.49L6.58266 90.4553C5.78115 88.2854 6.57281 85.8489 8.49673 84.5645L21.827 75.6651C23.275 74.6984 24.1159 73.048 24.0468 71.3084L23.4113 55.293C23.3195 52.9816 24.8254 50.909 27.052 50.282L42.4799 45.9374C44.1558 45.4655 45.4655 44.1558 45.9374 42.4799L50.282 27.052C50.909 24.8254 52.9816 23.3195 55.293 23.4113L71.3084 24.0468C73.048 24.1159 74.6984 23.275 75.6651 21.827L84.5645 8.49673C85.8489 6.57281 88.2854 5.78115 90.4553 6.58266L105.49 12.1361C107.124 12.7394 108.953 12.4496 110.32 11.3712L122.903 1.44346Z"
                                fill="#1A2F6A" />
                            <path
                                d="M124.921 20.2198C126.101 19.2885 127.766 19.2885 128.947 20.2198L139.828 28.8052C141.127 29.8297 142.865 30.1049 144.416 29.5318L157.418 24.7293C158.829 24.2083 160.413 24.7229 161.248 25.9735L168.944 37.5012C169.862 38.8768 171.43 39.6756 173.082 39.61L186.932 39.0604C188.435 39.0008 189.782 39.9796 190.189 41.4269L193.946 54.7687C194.395 56.3607 195.639 57.6049 197.231 58.0533L210.573 61.8104C212.02 62.2179 212.999 63.5651 212.939 65.0676L212.39 78.9173C212.324 80.57 213.123 82.1378 214.499 83.0562L226.026 90.7522C227.277 91.5871 227.791 93.1708 227.27 94.5813L222.468 107.583C221.895 109.135 222.17 110.873 223.195 112.171L231.78 123.053C232.711 124.233 232.711 125.899 231.78 127.079L223.195 137.961C222.17 139.259 221.895 140.997 222.468 142.549L227.27 155.551C227.791 156.961 227.277 158.545 226.026 159.38L214.499 167.076C213.123 167.994 212.324 169.562 212.39 171.215L212.939 185.064C212.999 186.567 212.02 187.914 210.573 188.322L197.231 192.079C195.639 192.527 194.395 193.771 193.946 195.363L190.189 208.705C189.782 210.152 188.435 211.131 186.932 211.072L173.082 210.522C171.43 210.456 169.862 211.255 168.944 212.631L161.248 224.159C160.413 225.409 158.829 225.924 157.418 225.403L144.416 220.6C142.865 220.027 141.127 220.302 139.828 221.327L128.947 229.912C127.766 230.843 126.101 230.843 124.921 229.912L114.039 221.327C112.741 220.302 111.003 220.027 109.451 220.6L96.4491 225.403C95.0386 225.924 93.4549 225.409 92.62 224.159L84.924 212.631C84.0056 211.255 82.4378 210.456 80.7851 210.522L66.9354 211.072C65.4329 211.131 64.0857 210.152 63.6782 208.705L59.9211 195.363C59.4727 193.771 58.2285 192.527 56.6365 192.079L43.2947 188.322C41.8474 187.914 40.8686 186.567 40.9282 185.064L41.4778 171.215C41.5434 169.562 40.7446 167.994 39.369 167.076L27.8412 159.38C26.5907 158.545 26.0761 156.961 26.5971 155.551L31.3996 142.549C31.9727 140.997 31.6975 139.259 30.673 137.961L22.0876 127.079C21.1563 125.899 21.1563 124.233 22.0876 123.053L30.673 112.171C31.6975 110.873 31.9727 109.135 31.3996 107.583L26.5971 94.5813C26.0761 93.1708 26.5907 91.5871 27.8412 90.7522L39.369 83.0562C40.7446 82.1378 41.5434 80.57 41.4778 78.9173L40.9282 65.0676C40.8686 63.5651 41.8474 62.2179 43.2947 61.8104L56.6365 58.0533C58.2285 57.6049 59.4727 56.3607 59.9211 54.7687L63.6782 41.4269C64.0857 39.9796 65.4329 39.0008 66.9354 39.0604L80.7851 39.61C82.4378 39.6756 84.0056 38.8768 84.924 37.5012L92.62 25.9734C93.4549 24.7229 95.0386 24.2083 96.4491 24.7293L109.451 29.5318C111.003 30.1049 112.741 29.8297 114.039 28.8052L124.921 20.2198Z"
                                stroke="white" stroke-width="1.5" />
                        </svg>