<svg width="30" height="29" viewBox="0 0 30 29" fill="none" xmlns="http://www.w3.org/2000/svg">
<g clip-path="url(#clip0_170_1638)">
<path d="M25.5807 27.7535H5.1647C3.1231 27.7535 1.4527 26.1407 1.4527 24.1695V4.45752C1.4527 2.48632 3.1231 0.873516 5.1647 0.873516H25.5807C27.6223 0.873516 29.2927 2.48632 29.2927 4.45752V24.1695C29.2927 26.1407 27.6223 27.7535 25.5807 27.7535Z" fill="white"/>
<path d="M15.187 18.8832H16.2078C16.2078 18.8832 16.4862 18.8832 16.6718 18.704C16.8574 18.5248 16.7646 18.256 16.7646 18.256C16.7646 18.256 16.7646 17.0016 17.3214 16.7328C17.971 16.5536 18.7134 17.9872 19.5486 18.5248C20.1982 18.9728 20.6622 18.8832 20.6622 18.8832H22.8894C22.8894 18.8832 24.0958 18.7936 23.539 17.8976C23.539 17.808 23.2606 17.2704 21.8686 16.016C20.4766 14.7616 20.6622 14.9408 22.3326 12.7904C23.3534 11.4464 23.7246 10.64 23.6318 10.2816C23.539 9.92321 22.7966 10.0128 22.7966 10.0128H20.291C20.291 10.0128 20.1054 10.0128 20.0126 10.1024C19.9198 10.192 19.827 10.3712 19.827 10.3712C19.827 10.3712 19.4558 11.3568 18.899 12.2528C17.7854 14.0448 17.3214 14.224 17.1358 14.0448C16.6718 13.776 16.8574 12.9696 16.8574 12.432C16.8574 10.64 17.1358 9.92321 16.3006 9.74401C16.0222 9.65441 15.8366 9.65441 15.0942 9.65441C14.1662 9.65441 13.4238 9.65441 13.0526 9.83361C12.7742 10.0128 12.5886 10.2816 12.6814 10.2816C12.867 10.2816 13.2382 10.3712 13.4238 10.64C13.7022 10.9984 13.7022 11.7152 13.7022 11.7152C13.7022 11.7152 13.8878 13.776 13.331 14.0448C12.9598 14.224 12.4958 13.8656 11.5678 12.1632C11.011 11.2672 10.6398 10.3712 10.6398 10.3712C10.6398 10.3712 10.547 10.192 10.4542 10.1024C10.2686 10.0128 10.083 9.92321 10.083 9.92321H7.67019C7.67019 9.92321 7.29899 9.92321 7.20619 10.1024C6.92779 10.4608 7.02059 10.7296 7.02059 10.7296C7.02059 10.7296 8.87659 14.9408 11.011 17.0912C12.9598 18.9728 15.187 18.8832 15.187 18.8832Z" fill="#147BB5"/>
</g>
<defs>
<clipPath id="clip0_170_1638">
<rect width="29" height="28" fill="white" transform="translate(0.5 0.5)"/>
</clipPath>
</defs>
</svg>
